<svg width="22" height="22" viewBox="0 0 22 22" fill="none" xmlns="http://www.w3.org/2000/svg">
<g opacity="0.4">
<path fill-rule="evenodd" clip-rule="evenodd" d="M16.2528 2.69328C16.2528 1.28833 17.3913 0.147461 18.7933 0.147461C20.1954 0.147461 21.3339 1.28833 21.3339 2.69328C21.3339 4.09824 20.1954 5.23911 18.7933 5.23911C17.3913 5.23911 16.2528 4.09824 16.2528 2.69328ZM12.1947 13.627L15.2413 9.68782L15.1991 9.70895C15.3678 9.47655 15.3994 9.18077 15.2834 8.91668C15.1685 8.6526 14.9145 8.47302 14.6414 8.45189C14.3558 8.4202 14.0722 8.54696 13.9025 8.77936L11.3524 12.0857L8.4313 9.78289C8.25209 9.64557 8.04126 9.59169 7.83043 9.61388C7.62065 9.64557 7.43089 9.76071 7.30334 9.92973L4.18404 13.9977L4.11974 14.0928C3.94053 14.4298 4.02486 14.8629 4.34111 15.0963C4.4887 15.1914 4.64682 15.2548 4.82603 15.2548C5.06955 15.2654 5.30041 15.1375 5.44799 14.9379L8.09397 11.5248L11.0984 13.7865L11.1932 13.8488C11.5306 14.0284 11.9522 13.9449 12.1947 13.627ZM14.4296 2.0285C14.3874 2.29259 14.3664 2.55668 14.3664 2.82077C14.3664 5.19756 16.2849 7.11906 18.6463 7.11906C18.9098 7.11906 19.1628 7.08843 19.4264 7.04618V15.5699C19.4264 19.152 17.318 21.2752 13.7338 21.2752H5.94456C2.35932 21.2752 0.250977 19.152 0.250977 15.5699V7.75393C0.250977 4.16233 2.35932 2.0285 5.94456 2.0285H14.4296Z" fill="#06152B"/>
</g>
</svg>
