<svg width="26" height="27" viewBox="0 0 26 27" fill="none" xmlns="http://www.w3.org/2000/svg">
<g opacity="0.4">
<path fill-rule="evenodd" clip-rule="evenodd" d="M7.86874 2.97266H17.7137C21.2989 2.97266 23.3229 5.01036 23.3335 8.60301V18.4693C23.3335 22.0609 21.2989 24.0997 17.7137 24.0997H7.86874C4.2835 24.0997 2.25 22.0609 2.25 18.4693V8.60301C2.25 5.01036 4.2835 2.97266 7.86874 2.97266ZM12.8438 19.7258C13.2981 19.7258 13.6766 19.3878 13.7188 18.9336V8.16933C13.7609 7.84186 13.6039 7.51334 13.3192 7.33481C13.023 7.15523 12.6646 7.15523 12.381 7.33481C12.0953 7.51334 11.9383 7.84186 11.9688 8.16933V18.9336C12.0226 19.3878 12.401 19.7258 12.8438 19.7258ZM17.6935 19.726C18.1363 19.726 18.5147 19.388 18.5685 18.9337V15.4689C18.5991 15.1298 18.442 14.8139 18.1563 14.6344C17.8727 14.4548 17.5143 14.4548 17.2192 14.6344C16.9335 14.8139 16.7764 15.1298 16.8186 15.4689V18.9337C16.8607 19.388 17.2392 19.726 17.6935 19.726ZM8.80637 18.9349C8.7642 19.3891 8.38576 19.7271 7.93141 19.7271C7.47811 19.7271 7.09861 19.3891 7.0575 18.9349V11.6355C7.02587 11.307 7.18294 10.9805 7.46863 10.801C7.7522 10.6214 8.11167 10.6214 8.3963 10.801C8.67987 10.9805 8.83905 11.307 8.80637 11.6355V18.9349Z" fill="#06152B"/>
</g>
</svg>
