<svg width="7" height="7" viewBox="0 0 7 7" fill="none" xmlns="http://www.w3.org/2000/svg">
<g opacity="0.2">
<path d="M3.0859 6.02716C3.05533 5.99731 2.92462 5.88463 2.81709 5.77966C2.14084 5.16428 1.03397 3.55892 0.696105 2.71867C0.641815 2.59107 0.52691 2.26845 0.519531 2.09608C0.519531 1.93092 0.557481 1.77347 0.634436 1.62322C0.741961 1.43593 0.911155 1.28569 1.11092 1.20336C1.24954 1.15036 1.66436 1.06804 1.67174 1.06804C2.12556 0.985709 2.86295 0.94043 3.67782 0.94043C4.45422 0.94043 5.16156 0.985709 5.62223 1.05311C5.62961 1.06083 6.1451 1.14316 6.32168 1.2332C6.64425 1.39837 6.84454 1.72098 6.84454 2.06624V2.09608C6.83664 2.32094 6.63634 2.7938 6.62897 2.7938C6.29058 3.58876 5.23799 5.15707 4.53855 5.78738C4.53855 5.78738 4.35881 5.9649 4.24654 6.04208C4.08526 6.16248 3.88549 6.22217 3.68573 6.22217C3.46277 6.22217 3.2551 6.15476 3.0859 6.02716Z" fill="#06152B"/>
</g>
</svg>
