<svg width="26" height="26" viewBox="0 0 26 26" fill="none" xmlns="http://www.w3.org/2000/svg">
<path fill-rule="evenodd" clip-rule="evenodd" d="M18.1869 7.51223C18.2204 7.43736 18.2361 7.35577 18.2328 7.27383H18.2604C18.1425 4.45505 15.8199 2.23047 12.9947 2.23047C10.1696 2.23047 7.84696 4.45505 7.72907 7.27383C7.71517 7.35269 7.71517 7.43337 7.72907 7.51223H9.28076C9.29466 7.43337 9.29466 7.35269 9.28076 7.27383C9.28076 5.24828 10.9251 3.60624 12.9534 3.60624C14.9818 3.60624 16.6261 5.24828 16.6261 7.27383C16.6271 7.35539 16.6426 7.43611 16.672 7.51223H18.1869ZM21.5751 10.8081L22.3856 17.3519C22.9819 21.6183 20.5875 23.3575 17.3733 23.3575H8.63423C5.41066 23.3575 2.94174 22.1564 3.61254 17.3519L4.43241 10.8081C4.85166 8.40586 6.29574 7.51223 7.64666 7.51223H18.3515C19.6838 7.51223 21.0813 8.47313 21.5751 10.8081ZM9.92868 12.951C9.41413 12.951 8.99701 12.5208 8.99701 11.9901C8.99701 11.4594 9.41413 11.0292 9.92868 11.0292C10.4432 11.0292 10.8603 11.4594 10.8603 11.9901C10.8603 12.5208 10.4432 12.951 9.92868 12.951ZM15.0997 11.9901C15.0997 12.5208 15.5168 12.951 16.0314 12.951C16.5459 12.951 16.963 12.5208 16.963 11.9901C16.963 11.4594 16.5459 11.0292 16.0314 11.0292C15.5168 11.0292 15.0997 11.4594 15.0997 11.9901Z" fill="#FF69B4"/>
</svg>
