<svg width="6" height="6" viewBox="0 0 6 6" fill="none" xmlns="http://www.w3.org/2000/svg">
<path d="M2.4345 4.98141C2.4055 4.95316 2.2815 4.84648 2.1795 4.74712C1.538 4.16455 0.488 2.64483 0.1675 1.84941C0.116 1.72861 0.007 1.4232 0 1.26002C0 1.10367 0.036 0.954618 0.109 0.812387C0.211 0.635085 0.3715 0.492854 0.561 0.41492C0.6925 0.364749 1.086 0.286814 1.093 0.286814C1.5235 0.20888 2.223 0.166016 2.996 0.166016C3.7325 0.166016 4.4035 0.20888 4.8405 0.272689C4.8475 0.279995 5.3365 0.35793 5.504 0.443171C5.81 0.599528 6 0.904934 6 1.23177V1.26002C5.9925 1.47288 5.8025 1.92052 5.7955 1.92052C5.4745 2.67308 4.476 4.15773 3.8125 4.75442C3.8125 4.75442 3.642 4.92247 3.5355 4.99553C3.3825 5.10951 3.193 5.16602 3.0035 5.16602C2.792 5.16602 2.595 5.10221 2.4345 4.98141Z" fill="#06152B"/>
</svg>
