<svg width="26" height="26" viewBox="0 0 26 26" fill="none" xmlns="http://www.w3.org/2000/svg">
<path fill-rule="evenodd" clip-rule="evenodd" d="M16.6379 6.4825C16.97 6.48706 17.303 6.49164 17.6371 6.49506C21.2268 6.49506 23.8442 9.05961 23.8442 12.6011V17.1502C23.8442 20.6917 21.2268 23.2562 17.6371 23.2562C16.1991 23.2868 14.7611 23.297 13.3128 23.297C11.8645 23.297 10.4058 23.2868 8.96783 23.2562C5.37807 23.2562 2.76074 20.6917 2.76074 17.1502V12.6011C2.76074 9.05961 5.37807 6.49506 8.97818 6.49506C10.3334 6.47471 11.7196 6.45435 13.1266 6.45435V6.28135C13.1266 5.57915 12.5369 5.00925 11.8334 5.00925H10.8093C9.64027 5.00925 8.68852 4.07298 8.68852 2.93318C8.68852 2.51593 9.04025 2.16992 9.4644 2.16992C9.8989 2.16992 10.2403 2.51593 10.2403 2.93318C10.2403 3.23849 10.4989 3.48273 10.8093 3.48273H11.8334C13.3956 3.49291 14.668 4.74465 14.6784 6.27117V6.46453C15.3305 6.46453 15.9827 6.47349 16.6379 6.4825ZM12.0918 15.6329H11.0056V16.7116C11.0056 17.1288 10.6539 17.4749 10.2297 17.4749C9.79522 17.4749 9.45383 17.1288 9.45383 16.7116V15.6329H8.35725C7.9331 15.6329 7.58136 15.297 7.58136 14.8696C7.58136 14.4524 7.9331 14.1063 8.35725 14.1063H9.45383V13.0378C9.45383 12.6205 9.79522 12.2745 10.2297 12.2745C10.6539 12.2745 11.0056 12.6205 11.0056 13.0378V14.1063H12.0918C12.516 14.1063 12.8677 14.4524 12.8677 14.8696C12.8677 15.297 12.516 15.6329 12.0918 15.6329ZM16.489 13.9124H16.5924C17.0166 13.9124 17.3683 13.5766 17.3683 13.1492C17.3683 12.7319 17.0166 12.3859 16.5924 12.3859H16.489C16.0545 12.3859 15.7131 12.7319 15.7131 13.1492C15.7131 13.5766 16.0545 13.9124 16.489 13.9124ZM18.2576 17.4137H18.3611C18.7852 17.4137 19.1369 17.0778 19.1369 16.6504C19.1369 16.2332 18.7852 15.8872 18.3611 15.8872H18.2576C17.8221 15.8872 17.4817 16.2332 17.4817 16.6504C17.4817 17.0778 17.8221 17.4137 18.2576 17.4137Z" fill="#03A89E"/>
</svg>
