<svg width="22" height="21" viewBox="0 0 22 21" fill="none" xmlns="http://www.w3.org/2000/svg">
<path fill-rule="evenodd" clip-rule="evenodd" d="M14.7859 0.754075C15.451 0.754075 16.1152 0.84809 16.7466 1.06042C20.6376 2.32804 22.0396 6.60626 20.8684 10.3457C20.2043 12.2567 19.1185 14.0007 17.6964 15.4257C15.6608 17.4011 13.427 19.1547 11.0225 20.6652L10.7589 20.8247L10.4848 20.6547C8.07183 19.1547 5.82539 17.4011 3.7708 15.4152C2.35821 13.9902 1.27136 12.2567 0.596692 10.3457C-0.594523 6.60626 0.807526 2.32804 4.74064 1.03823C5.04635 0.932598 5.36155 0.858654 5.6778 0.817456H5.8043C6.10053 0.774146 6.39464 0.754075 6.68981 0.754075H6.80577C7.4699 0.774146 8.11294 0.890344 8.73596 1.10267H8.79815C8.84032 1.12274 8.87194 1.14492 8.89303 1.165C9.126 1.24 9.34632 1.3245 9.55716 1.4407L9.95774 1.62028C10.0545 1.67201 10.1632 1.75106 10.2571 1.81937C10.3166 1.86266 10.3702 1.90163 10.411 1.92662C10.4282 1.9368 10.4457 1.94702 10.4634 1.95733C10.5537 2.01021 10.6479 2.06528 10.7273 2.12628C11.8985 1.22943 13.3206 0.743511 14.7859 0.754075ZM17.5897 8.35929C18.0219 8.34767 18.3909 8.00013 18.4225 7.5554V7.4297C18.4541 5.94975 17.5591 4.60924 16.1982 4.09163C15.766 3.94268 15.2916 4.17613 15.1335 4.6198C14.9859 5.06347 15.2178 5.54939 15.6606 5.70679C16.3363 5.96031 16.7885 6.62687 16.7885 7.36526V7.39801C16.7685 7.63991 16.8412 7.87336 16.9888 8.05294C17.1364 8.23252 17.3578 8.3371 17.5897 8.35929Z" fill="#3A36DB"/>
</svg>
