<svg width="26" height="27" viewBox="0 0 26 27" fill="none" xmlns="http://www.w3.org/2000/svg">
<g opacity="0.4">
<path fill-rule="evenodd" clip-rule="evenodd" d="M23.1092 12.0355C22.9664 12.1744 22.7727 12.2538 22.5688 12.2538C21.8144 12.2538 21.2027 12.8493 21.2027 13.5738C21.2027 14.3032 21.8072 14.8957 22.5546 14.9037C22.9756 14.9077 23.3335 15.1935 23.3335 15.6034V18.149C23.3335 20.2918 21.5493 22.0296 19.3472 22.0296H16.0236C15.68 22.0296 15.4017 21.7586 15.4017 21.4242V19.2804C15.4017 18.8636 15.0652 18.5361 14.637 18.5361C14.219 18.5361 13.8724 18.8636 13.8724 19.2804V21.4242C13.8724 21.7586 13.5941 22.0296 13.2515 22.0296H6.23628C4.04434 22.0296 2.25 20.2928 2.25 18.149V15.6034C2.25 15.1935 2.60785 14.9077 3.02891 14.9037C3.77723 14.8957 4.38077 14.3032 4.38077 13.5738C4.38077 12.8691 3.78946 12.3332 3.01463 12.3332C2.81073 12.3332 2.61702 12.2538 2.47429 12.1149C2.33156 11.9759 2.25 11.7874 2.25 11.5889V9.01838C2.25 6.87863 4.04841 5.12793 6.24648 5.12793H13.2515C13.5941 5.12793 13.8724 5.39887 13.8724 5.73333V8.27403C13.8724 8.68094 14.219 9.01838 14.637 9.01838C15.0652 9.01838 15.4017 8.68094 15.4017 8.27403V5.73333C15.4017 5.39887 15.68 5.12793 16.0236 5.12793H19.3472C21.5493 5.12793 23.3335 6.86474 23.3335 9.00846V11.5095C23.3335 11.708 23.2519 11.8965 23.1092 12.0355ZM14.6373 16.611C15.0655 16.611 15.4019 16.2735 15.4019 15.8666V11.8968C15.4019 11.4899 15.0655 11.1524 14.6373 11.1524C14.2193 11.1524 13.8727 11.4899 13.8727 11.8968V15.8666C13.8727 16.2735 14.2193 16.611 14.6373 16.611Z" fill="#06152B"/>
</g>
</svg>
