<svg width="66" height="66" viewBox="0 0 66 66" fill="none" xmlns="http://www.w3.org/2000/svg">
<path d="M5.25162 57.6914L0.799834 40.8468H4.09656L7.12858 54.2503L10.69 40.8468H14.083L17.5482 54.2503L20.5802 40.8468H23.901L19.3289 57.6914H15.6712L12.3263 45.2024L8.88523 57.6914H5.25162ZM30.5192 57.9802C29.3642 57.9802 28.3214 57.7155 27.391 57.1861C26.4765 56.6567 25.7466 55.9267 25.2012 54.9963C24.6718 54.0498 24.4071 52.9589 24.4071 51.7236C24.4071 50.4883 24.6798 49.4055 25.2252 48.475C25.7707 47.5285 26.5006 46.7906 27.415 46.2612C28.3455 45.7318 29.3882 45.4671 30.5433 45.4671C31.6823 45.4671 32.709 45.7318 33.6235 46.2612C34.5539 46.7906 35.2839 47.5285 35.8133 48.475C36.3587 49.4055 36.6314 50.4883 36.6314 51.7236C36.6314 52.9589 36.3587 54.0498 35.8133 54.9963C35.2839 55.9267 34.5539 56.6567 33.6235 57.1861C32.693 57.7155 31.6583 57.9802 30.5192 57.9802ZM30.5192 55.3091C31.3214 55.3091 32.0192 55.0123 32.6128 54.4187C33.2064 53.8091 33.5031 52.9108 33.5031 51.7236C33.5031 50.5365 33.2064 49.6461 32.6128 49.0525C32.0192 48.4429 31.3294 48.1381 30.5433 48.1381C29.7251 48.1381 29.0193 48.4429 28.4257 49.0525C27.8482 49.6461 27.5594 50.5365 27.5594 51.7236C27.5594 52.9108 27.8482 53.8091 28.4257 54.4187C29.0193 55.0123 29.7171 55.3091 30.5192 55.3091ZM39.3854 57.6914V45.7558H42.1046L42.3452 47.7772C42.7142 47.0713 43.2436 46.5098 43.9334 46.0927C44.6393 45.6756 45.4655 45.4671 46.412 45.4671C47.8879 45.4671 49.0349 45.9323 49.8531 46.8627C50.6713 47.7932 51.0803 49.1568 51.0803 50.9536V57.6914H48.0002V51.2423C48.0002 50.2156 47.7916 49.4295 47.3745 48.8841C46.9574 48.3387 46.3077 48.0659 45.4254 48.0659C44.5591 48.0659 43.8452 48.3707 43.2837 48.9804C42.7383 49.59 42.4655 50.4402 42.4655 51.5311V57.6914H39.3854ZM58.9588 57.9802C57.9 57.9802 56.9695 57.8117 56.1674 57.4748C55.3652 57.1219 54.7235 56.6406 54.2423 56.031C53.761 55.4214 53.4722 54.7155 53.376 53.9134H56.4802C56.5765 54.3786 56.8331 54.7797 57.2502 55.1166C57.6834 55.4374 58.2368 55.5979 58.9106 55.5979C59.5844 55.5979 60.0737 55.4615 60.3785 55.1888C60.6994 54.9161 60.8598 54.6032 60.8598 54.2503C60.8598 53.7369 60.6352 53.392 60.186 53.2156C59.7368 53.0231 59.1112 52.8386 58.309 52.6621C57.7957 52.5498 57.2743 52.4134 56.7449 52.253C56.2155 52.0926 55.7262 51.8921 55.277 51.6514C54.8439 51.3947 54.4909 51.0739 54.2182 50.6889C53.9455 50.2878 53.8091 49.7985 53.8091 49.221C53.8091 48.1622 54.2262 47.2718 55.0604 46.5499C55.9107 45.828 57.0978 45.4671 58.6219 45.4671C60.0336 45.4671 61.1566 45.7959 61.9908 46.4537C62.841 47.1114 63.3464 48.0178 63.5068 49.1729H60.5951C60.4186 48.2905 59.7529 47.8494 58.5978 47.8494C58.0203 47.8494 57.5711 47.9617 57.2502 48.1862C56.9454 48.4108 56.793 48.6916 56.793 49.0285C56.793 49.3814 57.0256 49.6622 57.4909 49.8707C57.9561 50.0793 58.5737 50.2718 59.3438 50.4482C60.178 50.6407 60.94 50.8573 61.6298 51.098C62.3357 51.3225 62.8972 51.6675 63.3143 52.1327C63.7314 52.5819 63.9399 53.2316 63.9399 54.0819C63.956 54.8198 63.7635 55.4856 63.3624 56.0791C62.9614 56.6727 62.3838 57.1379 61.6298 57.4748C60.8758 57.8117 59.9855 57.9802 58.9588 57.9802Z" fill="#06152B"/>
<path d="M32.5692 4.30507L26.3896 0.945312V14.3243L32.5692 16.4842L38.7787 14.3243V0.945312L32.5692 4.30507Z" fill="#3A36DB" stroke="#3A36DB" stroke-width="0.0599956"/>
<path d="M32.5392 15.315L10.7607 4.42578V17.8948L32.5392 29.354L55.1275 17.8948V4.42578L32.5392 15.315Z" fill="#3A36DB" stroke="#3A36DB" stroke-width="0.0599956"/>
<path d="M32.9307 9.22357L19.2217 2.41406V15.2531L32.9307 22.0026L46.1597 14.8332V2.41406L32.9307 9.22357Z" fill="#3A36DB" stroke="#3A36DB" stroke-width="0.0599956"/>
</svg>
