<svg width="761" height="432" viewBox="0 0 761 432" fill="none" xmlns="http://www.w3.org/2000/svg">
<rect x="0.888672" y="0.75" width="759.517" height="430.991" rx="10.5635" fill="white"/>
<line opacity="0.05" x1="66.3828" y1="364.661" x2="760.406" y2="364.661" stroke="#06152B" stroke-width="1.05635"/>
<line opacity="0.05" x1="66.3828" y1="310.788" x2="760.406" y2="310.788" stroke="#06152B" stroke-width="1.05635"/>
<line opacity="0.05" x1="66.3828" y1="256.914" x2="760.406" y2="256.914" stroke="#06152B" stroke-width="1.05635"/>
<line opacity="0.05" x1="66.3828" y1="203.04" x2="760.406" y2="203.04" stroke="#06152B" stroke-width="1.05635"/>
<line opacity="0.05" x1="66.3828" y1="149.166" x2="760.406" y2="149.166" stroke="#06152B" stroke-width="1.05635"/>
<line opacity="0.05" x1="66.3828" y1="95.2921" x2="760.406" y2="95.2921" stroke="#06152B" stroke-width="1.05635"/>
<g opacity="0.7">
<path opacity="0.7" d="M28.6056 100.37V92.2786L27.0968 92.6124V91.838L28.9794 91.0235H29.7405V100.37H28.6056ZM35.3586 100.53C34.5308 100.53 33.8142 100.33 33.2089 99.9295C32.6125 99.52 32.154 98.9548 31.8336 98.2338C31.5131 97.5038 31.3529 96.6582 31.3529 95.6968C31.3529 94.7355 31.5131 93.8943 31.8336 93.1732C32.154 92.4433 32.6125 91.8781 33.2089 91.4775C33.8142 91.068 34.5308 90.8633 35.3586 90.8633C36.1864 90.8633 36.8986 91.068 37.495 91.4775C38.0914 91.8781 38.5498 92.4433 38.8702 93.1732C39.1907 93.8943 39.3509 94.7355 39.3509 95.6968C39.3509 96.6582 39.1907 97.5038 38.8702 98.2338C38.5498 98.9548 38.0914 99.52 37.495 99.9295C36.8986 100.33 36.1864 100.53 35.3586 100.53ZM35.3586 99.5423C35.9016 99.5423 36.3867 99.3909 36.814 99.0883C37.2502 98.7767 37.5884 98.3361 37.8288 97.7664C38.078 97.1878 38.2026 96.498 38.2026 95.6968C38.2026 94.8957 38.078 94.2103 37.8288 93.6406C37.5884 93.0709 37.2502 92.6347 36.814 92.332C36.3867 92.0205 35.9016 91.8647 35.3586 91.8647C34.8067 91.8647 34.3171 92.0205 33.8898 92.332C33.4626 92.6347 33.1243 93.0709 32.8751 93.6406C32.6258 94.2103 32.5012 94.8957 32.5012 95.6968C32.5012 96.498 32.6258 97.1878 32.8751 97.7664C33.1243 98.3361 33.4626 98.7767 33.8898 99.0883C34.3171 99.3909 34.8067 99.5423 35.3586 99.5423ZM44.6165 100.53C43.7887 100.53 43.0721 100.33 42.4668 99.9295C41.8704 99.52 41.412 98.9548 41.0915 98.2338C40.7711 97.5038 40.6108 96.6582 40.6108 95.6968C40.6108 94.7355 40.7711 93.8943 41.0915 93.1732C41.412 92.4433 41.8704 91.8781 42.4668 91.4775C43.0721 91.068 43.7887 90.8633 44.6165 90.8633C45.4444 90.8633 46.1565 91.068 46.7529 91.4775C47.3493 91.8781 47.8077 92.4433 48.1282 93.1732C48.4486 93.8943 48.6089 94.7355 48.6089 95.6968C48.6089 96.6582 48.4486 97.5038 48.1282 98.2338C47.8077 98.9548 47.3493 99.52 46.7529 99.9295C46.1565 100.33 45.4444 100.53 44.6165 100.53ZM44.6165 99.5423C45.1595 99.5423 45.6446 99.3909 46.0719 99.0883C46.5081 98.7767 46.8464 98.3361 47.0867 97.7664C47.3359 97.1878 47.4606 96.498 47.4606 95.6968C47.4606 94.8957 47.3359 94.2103 47.0867 93.6406C46.8464 93.0709 46.5081 92.6347 46.0719 92.332C45.6446 92.0205 45.1595 91.8647 44.6165 91.8647C44.0646 91.8647 43.575 92.0205 43.1478 92.332C42.7205 92.6347 42.3822 93.0709 42.133 93.6406C41.8838 94.2103 41.7591 94.8957 41.7591 95.6968C41.7591 96.498 41.8838 97.1878 42.133 97.7664C42.3822 98.3361 42.7205 98.7767 43.1478 99.0883C43.575 99.3909 44.0646 99.5423 44.6165 99.5423Z" fill="#06152B"/>
<path opacity="0.7" d="M36.1884 154.404C35.5742 154.404 35.0223 154.293 34.5327 154.071C34.0431 153.839 33.6559 153.523 33.371 153.123C33.0951 152.713 32.9571 152.241 32.9571 151.707C32.9571 151.138 33.1218 150.626 33.4511 150.172C33.7894 149.718 34.2345 149.415 34.7864 149.264C34.279 149.095 33.8873 148.823 33.6114 148.449C33.3354 148.075 33.1975 147.666 33.1975 147.221C33.1975 146.767 33.3176 146.353 33.558 145.979C33.7983 145.596 34.141 145.294 34.5861 145.071C35.0312 144.849 35.5653 144.737 36.1884 144.737C36.8115 144.737 37.3456 144.849 37.7906 145.071C38.2357 145.294 38.5784 145.596 38.8188 145.979C39.0591 146.353 39.1793 146.767 39.1793 147.221C39.1793 147.657 39.0413 148.066 38.7654 148.449C38.4894 148.823 38.0977 149.095 37.5904 149.264C38.1423 149.415 38.5829 149.718 38.9122 150.172C39.2505 150.626 39.4196 151.138 39.4196 151.707C39.4196 152.241 39.2772 152.713 38.9923 153.123C38.7164 153.523 38.3336 153.839 37.8441 154.071C37.3545 154.293 36.8026 154.404 36.1884 154.404ZM36.1884 148.863C36.7581 148.863 37.2076 148.721 37.5369 148.436C37.8752 148.142 38.0443 147.759 38.0443 147.288C38.0443 146.762 37.8797 146.366 37.5503 146.099C37.2209 145.832 36.767 145.699 36.1884 145.699C35.6098 145.699 35.1558 145.832 34.8264 146.099C34.506 146.366 34.3458 146.762 34.3458 147.288C34.3458 147.759 34.5104 148.142 34.8398 148.436C35.1691 148.721 35.6187 148.863 36.1884 148.863ZM36.1884 153.416C36.8916 153.416 37.4168 153.256 37.7639 152.936C38.12 152.606 38.298 152.175 38.298 151.64C38.298 151.035 38.1066 150.577 37.7239 150.265C37.3411 149.954 36.8293 149.798 36.1884 149.798C35.5475 149.798 35.0356 149.954 34.6529 150.265C34.2701 150.577 34.0787 151.035 34.0787 151.64C34.0787 152.175 34.2523 152.606 34.5994 152.936C34.9555 153.256 35.4851 153.416 36.1884 153.416ZM44.8988 154.404C44.0709 154.404 43.3543 154.204 42.749 153.804C42.1526 153.394 41.6942 152.829 41.3737 152.108C41.0533 151.378 40.8931 150.532 40.8931 149.571C40.8931 148.609 41.0533 147.768 41.3737 147.047C41.6942 146.317 42.1526 145.752 42.749 145.352C43.3543 144.942 44.0709 144.737 44.8988 144.737C45.7266 144.737 46.4387 144.942 47.0351 145.352C47.6315 145.752 48.0899 146.317 48.4104 147.047C48.7309 147.768 48.8911 148.609 48.8911 149.571C48.8911 150.532 48.7309 151.378 48.4104 152.108C48.0899 152.829 47.6315 153.394 47.0351 153.804C46.4387 154.204 45.7266 154.404 44.8988 154.404ZM44.8988 153.416C45.4417 153.416 45.9269 153.265 46.3541 152.962C46.7903 152.651 47.1286 152.21 47.3689 151.64C47.6182 151.062 47.7428 150.372 47.7428 149.571C47.7428 148.77 47.6182 148.084 47.3689 147.515C47.1286 146.945 46.7903 146.509 46.3541 146.206C45.9269 145.895 45.4417 145.739 44.8988 145.739C44.3469 145.739 43.8573 145.895 43.43 146.206C43.0027 146.509 42.6645 146.945 42.4152 147.515C42.166 148.084 42.0414 148.77 42.0414 149.571C42.0414 150.372 42.166 151.062 42.4152 151.64C42.6645 152.21 43.0027 152.651 43.43 152.962C43.8573 153.265 44.3469 153.416 44.8988 153.416Z" fill="#06152B"/>
<path opacity="0.7" d="M36.208 208.278C35.5315 208.278 34.9618 208.154 34.4989 207.905C34.036 207.646 33.6621 207.304 33.3773 206.876C33.1013 206.449 32.8966 205.973 32.7631 205.448C32.6385 204.914 32.5762 204.371 32.5762 203.819C32.5762 202.786 32.7186 201.883 33.0034 201.108C33.2883 200.325 33.6977 199.715 34.2318 199.279C34.7748 198.834 35.4291 198.611 36.1946 198.611C36.7821 198.611 37.2851 198.727 37.7034 198.958C38.1218 199.19 38.4512 199.501 38.6915 199.893C38.9407 200.276 39.0965 200.703 39.1588 201.175H38.1174C38.0194 200.668 37.8014 200.276 37.4631 200C37.1248 199.724 36.6976 199.586 36.1813 199.586C35.4781 199.586 34.8861 199.92 34.4054 200.587C33.9336 201.246 33.6799 202.279 33.6443 203.685C33.858 203.267 34.1962 202.906 34.6591 202.604C35.1309 202.292 35.6961 202.136 36.3549 202.136C36.8889 202.136 37.3874 202.261 37.8503 202.51C38.3221 202.759 38.7049 203.111 38.9986 203.565C39.2924 204.01 39.4392 204.535 39.4392 205.141C39.4392 205.666 39.3102 206.169 39.052 206.649C38.7939 207.13 38.42 207.522 37.9304 207.824C37.4497 208.127 36.8756 208.278 36.208 208.278ZM36.1279 207.29C36.5462 207.29 36.9201 207.201 37.2495 207.023C37.5788 206.845 37.837 206.6 38.0239 206.289C38.2108 205.968 38.3043 205.603 38.3043 205.194C38.3043 204.562 38.0951 204.059 37.6767 203.685C37.2673 203.302 36.751 203.111 36.1279 203.111C35.7095 203.111 35.3356 203.209 35.0063 203.405C34.6769 203.592 34.4143 203.845 34.2185 204.166C34.0316 204.486 33.9381 204.834 33.9381 205.207C33.9381 205.608 34.0316 205.968 34.2185 206.289C34.4143 206.6 34.6769 206.845 35.0063 207.023C35.3356 207.201 35.7095 207.29 36.1279 207.29ZM44.8987 208.278C44.0709 208.278 43.3543 208.078 42.749 207.678C42.1526 207.268 41.6942 206.703 41.3737 205.982C41.0533 205.252 40.8931 204.406 40.8931 203.445C40.8931 202.484 41.0533 201.642 41.3737 200.921C41.6942 200.191 42.1526 199.626 42.749 199.226C43.3543 198.816 44.0709 198.611 44.8987 198.611C45.7266 198.611 46.4387 198.816 47.0351 199.226C47.6315 199.626 48.0899 200.191 48.4104 200.921C48.7309 201.642 48.8911 202.484 48.8911 203.445C48.8911 204.406 48.7309 205.252 48.4104 205.982C48.0899 206.703 47.6315 207.268 47.0351 207.678C46.4387 208.078 45.7266 208.278 44.8987 208.278ZM44.8987 207.29C45.4417 207.29 45.9269 207.139 46.3541 206.836C46.7903 206.525 47.1286 206.084 47.3689 205.514C47.6182 204.936 47.7428 204.246 47.7428 203.445C47.7428 202.644 47.6182 201.958 47.3689 201.389C47.1286 200.819 46.7903 200.383 46.3541 200.08C45.9269 199.769 45.4417 199.613 44.8987 199.613C44.3469 199.613 43.8573 199.769 43.43 200.08C43.0027 200.383 42.6645 200.819 42.4152 201.389C42.166 201.958 42.0414 202.644 42.0414 203.445C42.0414 204.246 42.166 204.936 42.4152 205.514C42.6645 206.084 43.0027 206.525 43.43 206.836C43.8573 207.139 44.3469 207.29 44.8987 207.29Z" fill="#06152B"/>
<path opacity="0.7" d="M37.4019 261.992V259.989H32.6618V259.121L37.2016 252.646H38.5101V259.001H39.8987V259.989H38.5101V261.992H37.4019ZM33.9036 259.001H37.4553V253.887L33.9036 259.001ZM44.8987 262.152C44.0709 262.152 43.3543 261.952 42.749 261.552C42.1526 261.142 41.6942 260.577 41.3737 259.856C41.0533 259.126 40.8931 258.28 40.8931 257.319C40.8931 256.358 41.0533 255.516 41.3737 254.795C41.6942 254.065 42.1526 253.5 42.749 253.1C43.3543 252.69 44.0709 252.485 44.8987 252.485C45.7266 252.485 46.4387 252.69 47.0351 253.1C47.6315 253.5 48.0899 254.065 48.4104 254.795C48.7309 255.516 48.8911 256.358 48.8911 257.319C48.8911 258.28 48.7309 259.126 48.4104 259.856C48.0899 260.577 47.6315 261.142 47.0351 261.552C46.4387 261.952 45.7266 262.152 44.8987 262.152ZM44.8987 261.164C45.4417 261.164 45.9269 261.013 46.3541 260.71C46.7903 260.399 47.1286 259.958 47.3689 259.388C47.6182 258.81 47.7428 258.12 47.7428 257.319C47.7428 256.518 47.6182 255.832 47.3689 255.263C47.1286 254.693 46.7903 254.257 46.3541 253.954C45.9269 253.643 45.4417 253.487 44.8987 253.487C44.3469 253.487 43.8573 253.643 43.43 253.954C43.0027 254.257 42.6645 254.693 42.4152 255.263C42.166 255.832 42.0414 256.518 42.0414 257.319C42.0414 258.12 42.166 258.81 42.4152 259.388C42.6645 259.958 43.0027 260.399 43.43 260.71C43.8573 261.013 44.3469 261.164 44.8987 261.164Z" fill="#06152B"/>
<path opacity="0.7" d="M33.6517 315.866V315.078C34.2837 314.58 34.8801 314.077 35.4409 313.57C36.0106 313.053 36.5135 312.546 36.9497 312.047C37.3948 311.549 37.742 311.059 37.9912 310.579C38.2493 310.098 38.3784 309.635 38.3784 309.19C38.3784 308.861 38.3206 308.554 38.2048 308.269C38.098 307.984 37.92 307.757 37.6707 307.588C37.4215 307.41 37.0832 307.321 36.656 307.321C36.2465 307.321 35.9038 307.414 35.6278 307.601C35.3519 307.779 35.1427 308.02 35.0003 308.322C34.8668 308.625 34.8 308.95 34.8 309.297H33.7185C33.7185 308.683 33.8475 308.157 34.1057 307.721C34.3638 307.276 34.7154 306.938 35.1605 306.707C35.6056 306.475 36.1085 306.359 36.6693 306.359C37.4972 306.359 38.1737 306.595 38.6989 307.067C39.233 307.53 39.5 308.224 39.5 309.15C39.5 309.702 39.362 310.249 39.0861 310.792C38.8101 311.326 38.4585 311.847 38.0313 312.355C37.604 312.853 37.1456 313.32 36.656 313.757C36.1753 314.193 35.7258 314.584 35.3074 314.932H39.8205V315.866H33.6517ZM44.9544 316.026C44.1266 316.026 43.41 315.826 42.8047 315.426C42.2083 315.016 41.7499 314.451 41.4294 313.73C41.109 313 40.9487 312.154 40.9487 311.193C40.9487 310.232 41.109 309.39 41.4294 308.669C41.7499 307.939 42.2083 307.374 42.8047 306.974C43.41 306.564 44.1266 306.359 44.9544 306.359C45.7823 306.359 46.4944 306.564 47.0908 306.974C47.6872 307.374 48.1456 307.939 48.4661 308.669C48.7865 309.39 48.9467 310.232 48.9467 311.193C48.9467 312.154 48.7865 313 48.4661 313.73C48.1456 314.451 47.6872 315.016 47.0908 315.426C46.4944 315.826 45.7823 316.026 44.9544 316.026ZM44.9544 315.038C45.4974 315.038 45.9825 314.887 46.4098 314.584C46.846 314.273 47.1842 313.832 47.4246 313.263C47.6738 312.684 47.7985 311.994 47.7985 311.193C47.7985 310.392 47.6738 309.706 47.4246 309.137C47.1842 308.567 46.846 308.131 46.4098 307.828C45.9825 307.517 45.4974 307.361 44.9544 307.361C44.4025 307.361 43.9129 307.517 43.4857 307.828C43.0584 308.131 42.7201 308.567 42.4709 309.137C42.2216 309.706 42.097 310.392 42.097 311.193C42.097 311.994 42.2216 312.684 42.4709 313.263C42.7201 313.832 43.0584 314.273 43.4857 314.584C43.9129 314.887 44.4025 315.038 44.9544 315.038Z" fill="#06152B"/>
<path opacity="0.7" d="M45.3489 369.9C44.5211 369.9 43.8045 369.7 43.1992 369.3C42.6028 368.89 42.1444 368.325 41.8239 367.604C41.5035 366.874 41.3433 366.028 41.3433 365.067C41.3433 364.106 41.5035 363.264 41.8239 362.543C42.1444 361.813 42.6028 361.248 43.1992 360.848C43.8045 360.438 44.5211 360.233 45.3489 360.233C46.1768 360.233 46.8889 360.438 47.4853 360.848C48.0817 361.248 48.5401 361.813 48.8606 362.543C49.1811 363.264 49.3413 364.106 49.3413 365.067C49.3413 366.028 49.1811 366.874 48.8606 367.604C48.5401 368.325 48.0817 368.89 47.4853 369.3C46.8889 369.7 46.1768 369.9 45.3489 369.9ZM45.3489 368.912C45.8919 368.912 46.3771 368.761 46.8043 368.458C47.2405 368.147 47.5788 367.706 47.8191 367.137C48.0684 366.558 48.193 365.868 48.193 365.067C48.193 364.266 48.0684 363.58 47.8191 363.011C47.5788 362.441 47.2405 362.005 46.8043 361.702C46.3771 361.391 45.8919 361.235 45.3489 361.235C44.7971 361.235 44.3075 361.391 43.8802 361.702C43.4529 362.005 43.1147 362.441 42.8654 363.011C42.6162 363.58 42.4916 364.266 42.4916 365.067C42.4916 365.868 42.6162 366.558 42.8654 367.137C43.1147 367.706 43.4529 368.147 43.8802 368.458C44.3075 368.761 44.7971 368.912 45.3489 368.912Z" fill="#06152B"/>
</g>
<g opacity="0.7">
<path opacity="0.7" d="M69.3479 394.036V385.945L67.839 386.278V385.504L69.7217 384.69H70.4828V394.036H69.3479ZM76.1009 394.196C75.273 394.196 74.5565 393.996 73.9512 393.596C73.3548 393.186 72.8963 392.621 72.5759 391.9C72.2554 391.17 72.0952 390.324 72.0952 389.363C72.0952 388.401 72.2554 387.56 72.5759 386.839C72.8963 386.109 73.3548 385.544 73.9512 385.144C74.5565 384.734 75.273 384.529 76.1009 384.529C76.9287 384.529 77.6408 384.734 78.2372 385.144C78.8336 385.544 79.2921 386.109 79.6125 386.839C79.933 387.56 80.0932 388.401 80.0932 389.363C80.0932 390.324 79.933 391.17 79.6125 391.9C79.2921 392.621 78.8336 393.186 78.2372 393.596C77.6408 393.996 76.9287 394.196 76.1009 394.196ZM76.1009 393.208C76.6439 393.208 77.129 393.057 77.5563 392.754C77.9924 392.443 78.3307 392.002 78.571 391.432C78.8203 390.854 78.9449 390.164 78.9449 389.363C78.9449 388.562 78.8203 387.876 78.571 387.307C78.3307 386.737 77.9924 386.301 77.5563 385.998C77.129 385.687 76.6439 385.531 76.1009 385.531C75.549 385.531 75.0594 385.687 74.6321 385.998C74.2049 386.301 73.8666 386.737 73.6174 387.307C73.3681 387.876 73.2435 388.562 73.2435 389.363C73.2435 390.164 73.3681 390.854 73.6174 391.432C73.8666 392.002 74.2049 392.443 74.6321 392.754C75.0594 393.057 75.549 393.208 76.1009 393.208ZM83.85 394.196C83.2981 394.196 82.8397 394.103 82.4747 393.916C82.1097 393.729 81.8383 393.48 81.6602 393.168C81.4822 392.857 81.3932 392.518 81.3932 392.153C81.3932 391.477 81.6513 390.956 82.1676 390.591C82.6839 390.226 83.3871 390.044 84.2773 390.044H86.0665V389.964C86.0665 389.385 85.9152 388.949 85.6125 388.655C85.3098 388.353 84.9048 388.201 84.3974 388.201C83.9613 388.201 83.583 388.312 83.2625 388.535C82.9509 388.749 82.7551 389.065 82.675 389.483H81.5267C81.5712 389.002 81.7314 388.597 82.0074 388.268C82.2922 387.939 82.6438 387.689 83.0622 387.52C83.4806 387.342 83.9257 387.253 84.3974 387.253C85.3232 387.253 86.0175 387.502 86.4804 388.001C86.9522 388.49 87.1881 389.145 87.1881 389.964V394.036H86.1866L86.1199 392.848C85.933 393.222 85.657 393.542 85.292 393.809C84.936 394.067 84.4553 394.196 83.85 394.196ZM84.0236 393.248C84.4509 393.248 84.8158 393.137 85.1185 392.915C85.43 392.692 85.6659 392.403 85.8261 392.047C85.9864 391.691 86.0665 391.317 86.0665 390.925V390.912H84.3707C83.712 390.912 83.2447 391.027 82.9687 391.259C82.7017 391.481 82.5682 391.762 82.5682 392.1C82.5682 392.447 82.6928 392.728 82.942 392.941C83.2002 393.146 83.5607 393.248 84.0236 393.248ZM88.8707 394.036V387.413H89.8854L89.9656 388.375C90.1792 388.019 90.464 387.743 90.8201 387.547C91.1762 387.351 91.5767 387.253 92.0218 387.253C92.547 387.253 92.9965 387.36 93.3704 387.574C93.7531 387.787 94.0469 388.112 94.2516 388.548C94.4831 388.148 94.7991 387.832 95.1996 387.6C95.6091 387.369 96.0497 387.253 96.5215 387.253C97.3138 387.253 97.9458 387.494 98.4175 387.974C98.8893 388.446 99.1252 389.176 99.1252 390.164V394.036H98.017V390.284C98.017 389.599 97.879 389.082 97.6031 388.735C97.3271 388.388 96.931 388.215 96.4147 388.215C95.8806 388.215 95.4355 388.424 95.0795 388.842C94.7323 389.252 94.5587 389.839 94.5587 390.605V394.036H93.4371V390.284C93.4371 389.599 93.2992 389.082 93.0232 388.735C92.7473 388.388 92.3512 388.215 91.8349 388.215C91.3097 388.215 90.8691 388.424 90.513 388.842C90.1658 389.252 89.9923 389.839 89.9923 390.605V394.036H88.8707Z" fill="#06152B"/>
<path opacity="0.7" d="M141.18 394.036V385.945L139.671 386.278V385.504L141.554 384.69H142.315V394.036H141.18ZM145.209 394.036V385.945L143.7 386.278V385.504L145.583 384.69H146.344V394.036H145.209ZM150.453 394.196C149.901 394.196 149.443 394.103 149.078 393.916C148.713 393.729 148.442 393.48 148.263 393.168C148.085 392.857 147.996 392.518 147.996 392.153C147.996 391.477 148.255 390.956 148.771 390.591C149.287 390.226 149.99 390.044 150.881 390.044H152.67V389.964C152.67 389.385 152.518 388.949 152.216 388.655C151.913 388.353 151.508 388.201 151.001 388.201C150.565 388.201 150.186 388.312 149.866 388.535C149.554 388.749 149.358 389.065 149.278 389.483H148.13C148.174 389.002 148.335 388.597 148.611 388.268C148.895 387.939 149.247 387.689 149.665 387.52C150.084 387.342 150.529 387.253 151.001 387.253C151.926 387.253 152.621 387.502 153.084 388.001C153.555 388.49 153.791 389.145 153.791 389.964V394.036H152.79L152.723 392.848C152.536 393.222 152.26 393.542 151.895 393.809C151.539 394.067 151.059 394.196 150.453 394.196ZM150.627 393.248C151.054 393.248 151.419 393.137 151.722 392.915C152.033 392.692 152.269 392.403 152.429 392.047C152.59 391.691 152.67 391.317 152.67 390.925V390.912H150.974C150.315 390.912 149.848 391.027 149.572 391.259C149.305 391.481 149.171 391.762 149.171 392.1C149.171 392.447 149.296 392.728 149.545 392.941C149.803 393.146 150.164 393.248 150.627 393.248ZM155.474 394.036V387.413H156.489L156.569 388.375C156.782 388.019 157.067 387.743 157.423 387.547C157.779 387.351 158.18 387.253 158.625 387.253C159.15 387.253 159.6 387.36 159.974 387.574C160.356 387.787 160.65 388.112 160.855 388.548C161.086 388.148 161.402 387.832 161.803 387.6C162.212 387.369 162.653 387.253 163.125 387.253C163.917 387.253 164.549 387.494 165.021 387.974C165.493 388.446 165.728 389.176 165.728 390.164V394.036H164.62V390.284C164.62 389.599 164.482 389.082 164.206 388.735C163.93 388.388 163.534 388.215 163.018 388.215C162.484 388.215 162.039 388.424 161.683 388.842C161.336 389.252 161.162 389.839 161.162 390.605V394.036H160.04V390.284C160.04 389.599 159.902 389.082 159.626 388.735C159.351 388.388 158.954 388.215 158.438 388.215C157.913 388.215 157.472 388.424 157.116 388.842C156.769 389.252 156.596 389.839 156.596 390.605V394.036H155.474Z" fill="#06152B"/>
<path opacity="0.7" d="M213.012 394.036V385.945L211.503 386.278V385.504L213.386 384.69H214.147V394.036H213.012ZM215.973 394.036V393.248C216.605 392.75 217.201 392.247 217.762 391.74C218.332 391.223 218.835 390.716 219.271 390.217C219.716 389.719 220.063 389.229 220.312 388.749C220.571 388.268 220.7 387.805 220.7 387.36C220.7 387.031 220.642 386.724 220.526 386.439C220.419 386.154 220.241 385.927 219.992 385.758C219.743 385.58 219.404 385.491 218.977 385.491C218.568 385.491 218.225 385.584 217.949 385.771C217.673 385.949 217.464 386.189 217.321 386.492C217.188 386.795 217.121 387.12 217.121 387.467H216.04C216.04 386.853 216.169 386.327 216.427 385.891C216.685 385.446 217.037 385.108 217.482 384.876C217.927 384.645 218.43 384.529 218.991 384.529C219.818 384.529 220.495 384.765 221.02 385.237C221.554 385.7 221.821 386.394 221.821 387.32C221.821 387.872 221.683 388.419 221.407 388.962C221.131 389.496 220.78 390.017 220.352 390.524C219.925 391.023 219.467 391.49 218.977 391.926C218.496 392.363 218.047 392.754 217.629 393.101H222.142V394.036H215.973ZM225.897 394.196C225.345 394.196 224.887 394.103 224.522 393.916C224.157 393.729 223.885 393.48 223.707 393.168C223.529 392.857 223.44 392.518 223.44 392.153C223.44 391.477 223.699 390.956 224.215 390.591C224.731 390.226 225.434 390.044 226.324 390.044H228.114V389.964C228.114 389.385 227.962 388.949 227.66 388.655C227.357 388.353 226.952 388.201 226.445 388.201C226.008 388.201 225.63 388.312 225.31 388.535C224.998 388.749 224.802 389.065 224.722 389.483H223.574C223.618 389.002 223.779 388.597 224.055 388.268C224.339 387.939 224.691 387.689 225.109 387.52C225.528 387.342 225.973 387.253 226.445 387.253C227.37 387.253 228.065 387.502 228.528 388.001C228.999 388.49 229.235 389.145 229.235 389.964V394.036H228.234L228.167 392.848C227.98 393.222 227.704 393.542 227.339 393.809C226.983 394.067 226.502 394.196 225.897 394.196ZM226.071 393.248C226.498 393.248 226.863 393.137 227.166 392.915C227.477 392.692 227.713 392.403 227.873 392.047C228.034 391.691 228.114 391.317 228.114 390.925V390.912H226.418C225.759 390.912 225.292 391.027 225.016 391.259C224.749 391.481 224.615 391.762 224.615 392.1C224.615 392.447 224.74 392.728 224.989 392.941C225.247 393.146 225.608 393.248 226.071 393.248ZM230.918 394.036V387.413H231.933L232.013 388.375C232.226 388.019 232.511 387.743 232.867 387.547C233.223 387.351 233.624 387.253 234.069 387.253C234.594 387.253 235.044 387.36 235.418 387.574C235.8 387.787 236.094 388.112 236.299 388.548C236.53 388.148 236.846 387.832 237.247 387.6C237.656 387.369 238.097 387.253 238.569 387.253C239.361 387.253 239.993 387.494 240.465 387.974C240.937 388.446 241.172 389.176 241.172 390.164V394.036H240.064V390.284C240.064 389.599 239.926 389.082 239.65 388.735C239.374 388.388 238.978 388.215 238.462 388.215C237.928 388.215 237.483 388.424 237.127 388.842C236.78 389.252 236.606 389.839 236.606 390.605V394.036H235.484V390.284C235.484 389.599 235.346 389.082 235.07 388.735C234.794 388.388 234.398 388.215 233.882 388.215C233.357 388.215 232.916 388.424 232.56 388.842C232.213 389.252 232.039 389.839 232.039 390.605V394.036H230.918Z" fill="#06152B"/>
<path opacity="0.7" d="M287.568 394.196C286.74 394.196 286.023 393.996 285.418 393.596C284.822 393.186 284.363 392.621 284.043 391.9C283.722 391.17 283.562 390.324 283.562 389.363C283.562 388.401 283.722 387.56 284.043 386.839C284.363 386.109 284.822 385.544 285.418 385.144C286.023 384.734 286.74 384.529 287.568 384.529C288.396 384.529 289.108 384.734 289.704 385.144C290.301 385.544 290.759 386.109 291.079 386.839C291.4 387.56 291.56 388.401 291.56 389.363C291.56 390.324 291.4 391.17 291.079 391.9C290.759 392.621 290.301 393.186 289.704 393.596C289.108 393.996 288.396 394.196 287.568 394.196ZM287.568 393.208C288.111 393.208 288.596 393.057 289.023 392.754C289.459 392.443 289.798 392.002 290.038 391.432C290.287 390.854 290.412 390.164 290.412 389.363C290.412 388.562 290.287 387.876 290.038 387.307C289.798 386.737 289.459 386.301 289.023 385.998C288.596 385.687 288.111 385.531 287.568 385.531C287.016 385.531 286.526 385.687 286.099 385.998C285.672 386.301 285.334 386.737 285.084 387.307C284.835 387.876 284.71 388.562 284.71 389.363C284.71 390.164 284.835 390.854 285.084 391.432C285.334 392.002 285.672 392.443 286.099 392.754C286.526 393.057 287.016 393.208 287.568 393.208ZM294.102 394.036V385.945L292.593 386.278V385.504L294.476 384.69H295.237V394.036H294.102ZM299.346 394.196C298.794 394.196 298.336 394.103 297.971 393.916C297.606 393.729 297.334 393.48 297.156 393.168C296.978 392.857 296.889 392.518 296.889 392.153C296.889 391.477 297.147 390.956 297.664 390.591C298.18 390.226 298.883 390.044 299.773 390.044H301.563V389.964C301.563 389.385 301.411 388.949 301.109 388.655C300.806 388.353 300.401 388.201 299.894 388.201C299.457 388.201 299.079 388.312 298.759 388.535C298.447 388.749 298.251 389.065 298.171 389.483H297.023C297.067 389.002 297.228 388.597 297.503 388.268C297.788 387.939 298.14 387.689 298.558 387.52C298.977 387.342 299.422 387.253 299.894 387.253C300.819 387.253 301.514 387.502 301.976 388.001C302.448 388.49 302.684 389.145 302.684 389.964V394.036H301.683L301.616 392.848C301.429 393.222 301.153 393.542 300.788 393.809C300.432 394.067 299.951 394.196 299.346 394.196ZM299.52 393.248C299.947 393.248 300.312 393.137 300.615 392.915C300.926 392.692 301.162 392.403 301.322 392.047C301.482 391.691 301.563 391.317 301.563 390.925V390.912H299.867C299.208 390.912 298.741 391.027 298.465 391.259C298.198 391.481 298.064 391.762 298.064 392.1C298.064 392.447 298.189 392.728 298.438 392.941C298.696 393.146 299.057 393.248 299.52 393.248ZM304.367 394.036V387.413H305.382L305.462 388.375C305.675 388.019 305.96 387.743 306.316 387.547C306.672 387.351 307.073 387.253 307.518 387.253C308.043 387.253 308.493 387.36 308.866 387.574C309.249 387.787 309.543 388.112 309.748 388.548C309.979 388.148 310.295 387.832 310.696 387.6C311.105 387.369 311.546 387.253 312.018 387.253C312.81 387.253 313.442 387.494 313.914 387.974C314.385 388.446 314.621 389.176 314.621 390.164V394.036H313.513V390.284C313.513 389.599 313.375 389.082 313.099 388.735C312.823 388.388 312.427 388.215 311.911 388.215C311.377 388.215 310.932 388.424 310.576 388.842C310.228 389.252 310.055 389.839 310.055 390.605V394.036H308.933V390.284C308.933 389.599 308.795 389.082 308.519 388.735C308.243 388.388 307.847 388.215 307.331 388.215C306.806 388.215 306.365 388.424 306.009 388.842C305.662 389.252 305.488 389.839 305.488 390.605V394.036H304.367Z" fill="#06152B"/>
<path opacity="0.7" d="M359.399 394.196C358.571 394.196 357.854 393.996 357.249 393.596C356.653 393.186 356.194 392.621 355.874 391.9C355.553 391.17 355.393 390.324 355.393 389.363C355.393 388.401 355.553 387.56 355.874 386.839C356.194 386.109 356.653 385.544 357.249 385.144C357.854 384.734 358.571 384.529 359.399 384.529C360.227 384.529 360.939 384.734 361.535 385.144C362.132 385.544 362.59 386.109 362.911 386.839C363.231 387.56 363.391 388.401 363.391 389.363C363.391 390.324 363.231 391.17 362.911 391.9C362.59 392.621 362.132 393.186 361.535 393.596C360.939 393.996 360.227 394.196 359.399 394.196ZM359.399 393.208C359.942 393.208 360.427 393.057 360.854 392.754C361.29 392.443 361.629 392.002 361.869 391.432C362.118 390.854 362.243 390.164 362.243 389.363C362.243 388.562 362.118 387.876 361.869 387.307C361.629 386.737 361.29 386.301 360.854 385.998C360.427 385.687 359.942 385.531 359.399 385.531C358.847 385.531 358.357 385.687 357.93 385.998C357.503 386.301 357.165 386.737 356.915 387.307C356.666 387.876 356.541 388.562 356.541 389.363C356.541 390.164 356.666 390.854 356.915 391.432C357.165 392.002 357.503 392.443 357.93 392.754C358.357 393.057 358.847 393.208 359.399 393.208ZM364.734 394.036V393.248C365.366 392.75 365.963 392.247 366.524 391.74C367.093 391.223 367.596 390.716 368.032 390.217C368.477 389.719 368.825 389.229 369.074 388.749C369.332 388.268 369.461 387.805 369.461 387.36C369.461 387.031 369.403 386.724 369.287 386.439C369.181 386.154 369.003 385.927 368.753 385.758C368.504 385.58 368.166 385.491 367.739 385.491C367.329 385.491 366.986 385.584 366.71 385.771C366.435 385.949 366.225 386.189 366.083 386.492C365.949 386.795 365.883 387.12 365.883 387.467H364.801C364.801 386.853 364.93 386.327 365.188 385.891C365.446 385.446 365.798 385.108 366.243 384.876C366.688 384.645 367.191 384.529 367.752 384.529C368.58 384.529 369.256 384.765 369.782 385.237C370.316 385.7 370.583 386.394 370.583 387.32C370.583 387.872 370.445 388.419 370.169 388.962C369.893 389.496 369.541 390.017 369.114 390.524C368.687 391.023 368.228 391.49 367.739 391.926C367.258 392.363 366.808 392.754 366.39 393.101H370.903V394.036H364.734ZM374.659 394.196C374.107 394.196 373.648 394.103 373.283 393.916C372.918 393.729 372.647 393.48 372.469 393.168C372.291 392.857 372.202 392.518 372.202 392.153C372.202 391.477 372.46 390.956 372.976 390.591C373.493 390.226 374.196 390.044 375.086 390.044H376.875V389.964C376.875 389.385 376.724 388.949 376.421 388.655C376.119 388.353 375.713 388.201 375.206 388.201C374.77 388.201 374.392 388.312 374.071 388.535C373.76 388.749 373.564 389.065 373.484 389.483H372.335C372.38 389.002 372.54 388.597 372.816 388.268C373.101 387.939 373.452 387.689 373.871 387.52C374.289 387.342 374.734 387.253 375.206 387.253C376.132 387.253 376.826 387.502 377.289 388.001C377.761 388.49 377.997 389.145 377.997 389.964V394.036H376.995L376.929 392.848C376.742 393.222 376.466 393.542 376.101 393.809C375.745 394.067 375.264 394.196 374.659 394.196ZM374.832 393.248C375.26 393.248 375.624 393.137 375.927 392.915C376.239 392.692 376.475 392.403 376.635 392.047C376.795 391.691 376.875 391.317 376.875 390.925V390.912H375.179C374.521 390.912 374.053 391.027 373.777 391.259C373.51 391.481 373.377 391.762 373.377 392.1C373.377 392.447 373.501 392.728 373.751 392.941C374.009 393.146 374.369 393.248 374.832 393.248ZM379.679 394.036V387.413H380.694L380.774 388.375C380.988 388.019 381.273 387.743 381.629 387.547C381.985 387.351 382.385 387.253 382.83 387.253C383.356 387.253 383.805 387.36 384.179 387.574C384.562 387.787 384.856 388.112 385.06 388.548C385.292 388.148 385.608 387.832 386.008 387.6C386.418 387.369 386.858 387.253 387.33 387.253C388.122 387.253 388.754 387.494 389.226 387.974C389.698 388.446 389.934 389.176 389.934 390.164V394.036H388.826V390.284C388.826 389.599 388.688 389.082 388.412 388.735C388.136 388.388 387.74 388.215 387.223 388.215C386.689 388.215 386.244 388.424 385.888 388.842C385.541 389.252 385.367 389.839 385.367 390.605V394.036H384.246V390.284C384.246 389.599 384.108 389.082 383.832 388.735C383.556 388.388 383.16 388.215 382.644 388.215C382.118 388.215 381.678 388.424 381.322 388.842C380.974 389.252 380.801 389.839 380.801 390.605V394.036H379.679Z" fill="#06152B"/>
<path opacity="0.7" d="M431.231 394.196C430.403 394.196 429.686 393.996 429.081 393.596C428.485 393.186 428.026 392.621 427.706 391.9C427.385 391.17 427.225 390.324 427.225 389.363C427.225 388.401 427.385 387.56 427.706 386.839C428.026 386.109 428.485 385.544 429.081 385.144C429.686 384.734 430.403 384.529 431.231 384.529C432.059 384.529 432.771 384.734 433.367 385.144C433.964 385.544 434.422 386.109 434.743 386.839C435.063 387.56 435.223 388.401 435.223 389.363C435.223 390.324 435.063 391.17 434.743 391.9C434.422 392.621 433.964 393.186 433.367 393.596C432.771 393.996 432.059 394.196 431.231 394.196ZM431.231 393.208C431.774 393.208 432.259 393.057 432.686 392.754C433.122 392.443 433.461 392.002 433.701 391.432C433.95 390.854 434.075 390.164 434.075 389.363C434.075 388.562 433.95 387.876 433.701 387.307C433.461 386.737 433.122 386.301 432.686 385.998C432.259 385.687 431.774 385.531 431.231 385.531C430.679 385.531 430.189 385.687 429.762 385.998C429.335 386.301 428.997 386.737 428.747 387.307C428.498 387.876 428.374 388.562 428.374 389.363C428.374 390.164 428.498 390.854 428.747 391.432C428.997 392.002 429.335 392.443 429.762 392.754C430.189 393.057 430.679 393.208 431.231 393.208ZM439.754 394.196C439.158 394.196 438.62 394.09 438.139 393.876C437.658 393.653 437.271 393.324 436.977 392.888C436.692 392.452 436.541 391.909 436.523 391.259H437.658C437.667 391.793 437.854 392.256 438.219 392.647C438.584 393.03 439.096 393.222 439.754 393.222C440.413 393.222 440.907 393.039 441.237 392.674C441.575 392.309 441.744 391.869 441.744 391.352C441.744 390.916 441.637 390.56 441.423 390.284C441.219 390.008 440.938 389.803 440.582 389.67C440.235 389.536 439.852 389.47 439.434 389.47H438.74V388.522H439.434C440.039 388.522 440.511 388.384 440.849 388.108C441.197 387.832 441.37 387.445 441.37 386.946C441.37 386.528 441.232 386.185 440.956 385.918C440.689 385.642 440.289 385.504 439.754 385.504C439.238 385.504 438.824 385.66 438.513 385.971C438.201 386.274 438.028 386.657 437.992 387.12H436.857C436.884 386.612 437.017 386.163 437.258 385.771C437.507 385.379 437.845 385.077 438.272 384.863C438.7 384.641 439.194 384.529 439.754 384.529C440.36 384.529 440.863 384.636 441.263 384.85C441.673 385.063 441.98 385.348 442.185 385.704C442.398 386.06 442.505 386.452 442.505 386.879C442.505 387.351 442.376 387.783 442.118 388.174C441.86 388.557 441.472 388.815 440.956 388.949C441.508 389.065 441.966 389.327 442.331 389.737C442.696 390.146 442.879 390.685 442.879 391.352C442.879 391.869 442.759 392.345 442.518 392.781C442.287 393.208 441.94 393.551 441.477 393.809C441.014 394.067 440.44 394.196 439.754 394.196ZM446.83 394.196C446.278 394.196 445.819 394.103 445.454 393.916C445.089 393.729 444.818 393.48 444.64 393.168C444.462 392.857 444.373 392.518 444.373 392.153C444.373 391.477 444.631 390.956 445.147 390.591C445.664 390.226 446.367 390.044 447.257 390.044H449.046V389.964C449.046 389.385 448.895 388.949 448.592 388.655C448.29 388.353 447.885 388.201 447.377 388.201C446.941 388.201 446.563 388.312 446.242 388.535C445.931 388.749 445.735 389.065 445.655 389.483H444.506C444.551 389.002 444.711 388.597 444.987 388.268C445.272 387.939 445.624 387.689 446.042 387.52C446.46 387.342 446.905 387.253 447.377 387.253C448.303 387.253 448.997 387.502 449.46 388.001C449.932 388.49 450.168 389.145 450.168 389.964V394.036H449.166L449.1 392.848C448.913 393.222 448.637 393.542 448.272 393.809C447.916 394.067 447.435 394.196 446.83 394.196ZM447.003 393.248C447.431 393.248 447.796 393.137 448.098 392.915C448.41 392.692 448.646 392.403 448.806 392.047C448.966 391.691 449.046 391.317 449.046 390.925V390.912H447.35C446.692 390.912 446.224 391.027 445.948 391.259C445.681 391.481 445.548 391.762 445.548 392.1C445.548 392.447 445.673 392.728 445.922 392.941C446.18 393.146 446.54 393.248 447.003 393.248ZM451.85 394.036V387.413H452.865L452.945 388.375C453.159 388.019 453.444 387.743 453.8 387.547C454.156 387.351 454.556 387.253 455.002 387.253C455.527 387.253 455.976 387.36 456.35 387.574C456.733 387.787 457.027 388.112 457.231 388.548C457.463 388.148 457.779 387.832 458.179 387.6C458.589 387.369 459.029 387.253 459.501 387.253C460.293 387.253 460.925 387.494 461.397 387.974C461.869 388.446 462.105 389.176 462.105 390.164V394.036H460.997V390.284C460.997 389.599 460.859 389.082 460.583 388.735C460.307 388.388 459.911 388.215 459.394 388.215C458.86 388.215 458.415 388.424 458.059 388.842C457.712 389.252 457.538 389.839 457.538 390.605V394.036H456.417V390.284C456.417 389.599 456.279 389.082 456.003 388.735C455.727 388.388 455.331 388.215 454.815 388.215C454.289 388.215 453.849 388.424 453.493 388.842C453.146 389.252 452.972 389.839 452.972 390.605V394.036H451.85Z" fill="#06152B"/>
<path opacity="0.7" d="M503.063 394.196C502.235 394.196 501.519 393.996 500.913 393.596C500.317 393.186 499.858 392.621 499.538 391.9C499.217 391.17 499.057 390.324 499.057 389.363C499.057 388.401 499.217 387.56 499.538 386.839C499.858 386.109 500.317 385.544 500.913 385.144C501.519 384.734 502.235 384.529 503.063 384.529C503.891 384.529 504.603 384.734 505.199 385.144C505.796 385.544 506.254 386.109 506.575 386.839C506.895 387.56 507.055 388.401 507.055 389.363C507.055 390.324 506.895 391.17 506.575 391.9C506.254 392.621 505.796 393.186 505.199 393.596C504.603 393.996 503.891 394.196 503.063 394.196ZM503.063 393.208C503.606 393.208 504.091 393.057 504.518 392.754C504.955 392.443 505.293 392.002 505.533 391.432C505.782 390.854 505.907 390.164 505.907 389.363C505.907 388.562 505.782 387.876 505.533 387.307C505.293 386.737 504.955 386.301 504.518 385.998C504.091 385.687 503.606 385.531 503.063 385.531C502.511 385.531 502.021 385.687 501.594 385.998C501.167 386.301 500.829 386.737 500.579 387.307C500.33 387.876 500.206 388.562 500.206 389.363C500.206 390.164 500.33 390.854 500.579 391.432C500.829 392.002 501.167 392.443 501.594 392.754C502.021 393.057 502.511 393.208 503.063 393.208ZM512.908 394.036V392.033H508.168V391.165L512.708 384.69H514.017V391.045H515.405V392.033H514.017V394.036H512.908ZM509.41 391.045H512.962V385.931L509.41 391.045ZM518.896 394.196C518.345 394.196 517.886 394.103 517.521 393.916C517.156 393.729 516.885 393.48 516.707 393.168C516.529 392.857 516.44 392.518 516.44 392.153C516.44 391.477 516.698 390.956 517.214 390.591C517.73 390.226 518.434 390.044 519.324 390.044H521.113V389.964C521.113 389.385 520.962 388.949 520.659 388.655C520.356 388.353 519.951 388.201 519.444 388.201C519.008 388.201 518.629 388.312 518.309 388.535C517.997 388.749 517.802 389.065 517.721 389.483H516.573C516.618 389.002 516.778 388.597 517.054 388.268C517.339 387.939 517.69 387.689 518.109 387.52C518.527 387.342 518.972 387.253 519.444 387.253C520.37 387.253 521.064 387.502 521.527 388.001C521.999 388.49 522.235 389.145 522.235 389.964V394.036H521.233L521.166 392.848C520.979 393.222 520.703 393.542 520.338 393.809C519.982 394.067 519.502 394.196 518.896 394.196ZM519.07 393.248C519.497 393.248 519.862 393.137 520.165 392.915C520.476 392.692 520.712 392.403 520.873 392.047C521.033 391.691 521.113 391.317 521.113 390.925V390.912H519.417C518.758 390.912 518.291 391.027 518.015 391.259C517.748 391.481 517.615 391.762 517.615 392.1C517.615 392.447 517.739 392.728 517.988 392.941C518.247 393.146 518.607 393.248 519.07 393.248ZM523.917 394.036V387.413H524.932L525.012 388.375C525.226 388.019 525.51 387.743 525.867 387.547C526.223 387.351 526.623 387.253 527.068 387.253C527.593 387.253 528.043 387.36 528.417 387.574C528.8 387.787 529.093 388.112 529.298 388.548C529.53 388.148 529.846 387.832 530.246 387.6C530.656 387.369 531.096 387.253 531.568 387.253C532.36 387.253 532.992 387.494 533.464 387.974C533.936 388.446 534.172 389.176 534.172 390.164V394.036H533.063V390.284C533.063 389.599 532.925 389.082 532.65 388.735C532.374 388.388 531.977 388.215 531.461 388.215C530.927 388.215 530.482 388.424 530.126 388.842C529.779 389.252 529.605 389.839 529.605 390.605V394.036H528.484V390.284C528.484 389.599 528.346 389.082 528.07 388.735C527.794 388.388 527.398 388.215 526.881 388.215C526.356 388.215 525.916 388.424 525.559 388.842C525.212 389.252 525.039 389.839 525.039 390.605V394.036H523.917Z" fill="#06152B"/>
<path opacity="0.7" d="M574.895 394.196C574.067 394.196 573.351 393.996 572.745 393.596C572.149 393.186 571.69 392.621 571.37 391.9C571.05 391.17 570.889 390.324 570.889 389.363C570.889 388.401 571.05 387.56 571.37 386.839C571.69 386.109 572.149 385.544 572.745 385.144C573.351 384.734 574.067 384.529 574.895 384.529C575.723 384.529 576.435 384.734 577.031 385.144C577.628 385.544 578.086 386.109 578.407 386.839C578.727 387.56 578.887 388.401 578.887 389.363C578.887 390.324 578.727 391.17 578.407 391.9C578.086 392.621 577.628 393.186 577.031 393.596C576.435 393.996 575.723 394.196 574.895 394.196ZM574.895 393.208C575.438 393.208 575.923 393.057 576.35 392.754C576.787 392.443 577.125 392.002 577.365 391.432C577.614 390.854 577.739 390.164 577.739 389.363C577.739 388.562 577.614 387.876 577.365 387.307C577.125 386.737 576.787 386.301 576.35 385.998C575.923 385.687 575.438 385.531 574.895 385.531C574.343 385.531 573.853 385.687 573.426 385.998C572.999 386.301 572.661 386.737 572.411 387.307C572.162 387.876 572.038 388.562 572.038 389.363C572.038 390.164 572.162 390.854 572.411 391.432C572.661 392.002 572.999 392.443 573.426 392.754C573.853 393.057 574.343 393.208 574.895 393.208ZM583.686 394.196C583.045 394.196 582.488 394.081 582.017 393.849C581.545 393.618 581.166 393.302 580.882 392.901C580.606 392.492 580.437 392.029 580.374 391.513H581.469C581.576 392.029 581.825 392.447 582.217 392.768C582.608 393.079 583.103 393.235 583.699 393.235C584.144 393.235 584.527 393.133 584.847 392.928C585.168 392.714 585.412 392.429 585.582 392.073C585.76 391.717 585.849 391.321 585.849 390.885C585.849 390.191 585.653 389.63 585.261 389.203C584.869 388.775 584.362 388.562 583.739 388.562C583.223 388.562 582.782 388.677 582.417 388.909C582.052 389.14 581.785 389.443 581.616 389.817H580.548L581.349 384.69H586.249V385.664H582.217L581.669 388.508C581.883 388.25 582.177 388.037 582.551 387.867C582.933 387.698 583.37 387.614 583.859 387.614C584.473 387.614 585.007 387.756 585.461 388.041C585.924 388.326 586.285 388.713 586.543 389.203C586.801 389.692 586.93 390.249 586.93 390.872C586.93 391.468 586.801 392.02 586.543 392.527C586.294 393.035 585.924 393.44 585.435 393.742C584.954 394.045 584.371 394.196 583.686 394.196ZM590.82 394.196C590.268 394.196 589.809 394.103 589.444 393.916C589.08 393.729 588.808 393.48 588.63 393.168C588.452 392.857 588.363 392.518 588.363 392.153C588.363 391.477 588.621 390.956 589.137 390.591C589.654 390.226 590.357 390.044 591.247 390.044H593.036V389.964C593.036 389.385 592.885 388.949 592.582 388.655C592.28 388.353 591.875 388.201 591.367 388.201C590.931 388.201 590.553 388.312 590.232 388.535C589.921 388.749 589.725 389.065 589.645 389.483H588.496C588.541 389.002 588.701 388.597 588.977 388.268C589.262 387.939 589.614 387.689 590.032 387.52C590.45 387.342 590.895 387.253 591.367 387.253C592.293 387.253 592.987 387.502 593.45 388.001C593.922 388.49 594.158 389.145 594.158 389.964V394.036H593.156L593.09 392.848C592.903 393.222 592.627 393.542 592.262 393.809C591.906 394.067 591.425 394.196 590.82 394.196ZM590.993 393.248C591.421 393.248 591.786 393.137 592.088 392.915C592.4 392.692 592.636 392.403 592.796 392.047C592.956 391.691 593.036 391.317 593.036 390.925V390.912H591.34C590.682 390.912 590.214 391.027 589.939 391.259C589.671 391.481 589.538 391.762 589.538 392.1C589.538 392.447 589.663 392.728 589.912 392.941C590.17 393.146 590.53 393.248 590.993 393.248ZM595.84 394.036V387.413H596.855L596.935 388.375C597.149 388.019 597.434 387.743 597.79 387.547C598.146 387.351 598.546 387.253 598.992 387.253C599.517 387.253 599.966 387.36 600.34 387.574C600.723 387.787 601.017 388.112 601.221 388.548C601.453 388.148 601.769 387.832 602.169 387.6C602.579 387.369 603.019 387.253 603.491 387.253C604.284 387.253 604.916 387.494 605.387 387.974C605.859 388.446 606.095 389.176 606.095 390.164V394.036H604.987V390.284C604.987 389.599 604.849 389.082 604.573 388.735C604.297 388.388 603.901 388.215 603.384 388.215C602.85 388.215 602.405 388.424 602.049 388.842C601.702 389.252 601.528 389.839 601.528 390.605V394.036H600.407V390.284C600.407 389.599 600.269 389.082 599.993 388.735C599.717 388.388 599.321 388.215 598.805 388.215C598.279 388.215 597.839 388.424 597.483 388.842C597.136 389.252 596.962 389.839 596.962 390.605V394.036H595.84Z" fill="#06152B"/>
<path opacity="0.7" d="M646.727 394.196C645.899 394.196 645.183 393.996 644.577 393.596C643.981 393.186 643.522 392.621 643.202 391.9C642.882 391.17 642.721 390.324 642.721 389.363C642.721 388.401 642.882 387.56 643.202 386.839C643.522 386.109 643.981 385.544 644.577 385.144C645.183 384.734 645.899 384.529 646.727 384.529C647.555 384.529 648.267 384.734 648.863 385.144C649.46 385.544 649.918 386.109 650.239 386.839C650.559 387.56 650.719 388.401 650.719 389.363C650.719 390.324 650.559 391.17 650.239 391.9C649.918 392.621 649.46 393.186 648.863 393.596C648.267 393.996 647.555 394.196 646.727 394.196ZM646.727 393.208C647.27 393.208 647.755 393.057 648.182 392.754C648.619 392.443 648.957 392.002 649.197 391.432C649.446 390.854 649.571 390.164 649.571 389.363C649.571 388.562 649.446 387.876 649.197 387.307C648.957 386.737 648.619 386.301 648.182 385.998C647.755 385.687 647.27 385.531 646.727 385.531C646.175 385.531 645.686 385.687 645.258 385.998C644.831 386.301 644.493 386.737 644.243 387.307C643.994 387.876 643.87 388.562 643.87 389.363C643.87 390.164 643.994 390.854 644.243 391.432C644.493 392.002 644.831 392.443 645.258 392.754C645.686 393.057 646.175 393.208 646.727 393.208ZM655.705 394.196C655.028 394.196 654.458 394.072 653.995 393.822C653.533 393.564 653.159 393.222 652.874 392.794C652.598 392.367 652.393 391.891 652.26 391.366C652.135 390.832 652.073 390.289 652.073 389.737C652.073 388.704 652.215 387.801 652.5 387.026C652.785 386.243 653.194 385.633 653.728 385.197C654.271 384.752 654.926 384.529 655.691 384.529C656.279 384.529 656.782 384.645 657.2 384.876C657.618 385.108 657.948 385.419 658.188 385.811C658.437 386.194 658.593 386.621 658.655 387.093H657.614C657.516 386.586 657.298 386.194 656.96 385.918C656.621 385.642 656.194 385.504 655.678 385.504C654.975 385.504 654.383 385.838 653.902 386.505C653.43 387.164 653.176 388.197 653.141 389.603C653.355 389.185 653.693 388.824 654.156 388.522C654.627 388.21 655.193 388.054 655.851 388.054C656.385 388.054 656.884 388.179 657.347 388.428C657.819 388.677 658.201 389.029 658.495 389.483C658.789 389.928 658.936 390.453 658.936 391.059C658.936 391.584 658.807 392.087 658.549 392.567C658.29 393.048 657.917 393.44 657.427 393.742C656.946 394.045 656.372 394.196 655.705 394.196ZM655.624 393.208C656.043 393.208 656.417 393.119 656.746 392.941C657.075 392.763 657.334 392.518 657.52 392.207C657.707 391.886 657.801 391.521 657.801 391.112C657.801 390.48 657.592 389.977 657.173 389.603C656.764 389.22 656.248 389.029 655.624 389.029C655.206 389.029 654.832 389.127 654.503 389.323C654.173 389.51 653.911 389.763 653.715 390.084C653.528 390.404 653.435 390.751 653.435 391.125C653.435 391.526 653.528 391.886 653.715 392.207C653.911 392.518 654.173 392.763 654.503 392.941C654.832 393.119 655.206 393.208 655.624 393.208ZM662.886 394.196C662.335 394.196 661.876 394.103 661.511 393.916C661.146 393.729 660.875 393.48 660.697 393.168C660.519 392.857 660.43 392.518 660.43 392.153C660.43 391.477 660.688 390.956 661.204 390.591C661.72 390.226 662.424 390.044 663.314 390.044H665.103V389.964C665.103 389.385 664.952 388.949 664.649 388.655C664.346 388.353 663.941 388.201 663.434 388.201C662.998 388.201 662.619 388.312 662.299 388.535C661.987 388.749 661.792 389.065 661.711 389.483H660.563C660.608 389.002 660.768 388.597 661.044 388.268C661.329 387.939 661.68 387.689 662.099 387.52C662.517 387.342 662.962 387.253 663.434 387.253C664.36 387.253 665.054 387.502 665.517 388.001C665.989 388.49 666.225 389.145 666.225 389.964V394.036H665.223L665.156 392.848C664.969 393.222 664.693 393.542 664.329 393.809C663.972 394.067 663.492 394.196 662.886 394.196ZM663.06 393.248C663.487 393.248 663.852 393.137 664.155 392.915C664.467 392.692 664.702 392.403 664.863 392.047C665.023 391.691 665.103 391.317 665.103 390.925V390.912H663.407C662.749 390.912 662.281 391.027 662.005 391.259C661.738 391.481 661.605 391.762 661.605 392.1C661.605 392.447 661.729 392.728 661.979 392.941C662.237 393.146 662.597 393.248 663.06 393.248ZM667.907 394.036V387.413H668.922L669.002 388.375C669.216 388.019 669.501 387.743 669.857 387.547C670.213 387.351 670.613 387.253 671.058 387.253C671.583 387.253 672.033 387.36 672.407 387.574C672.79 387.787 673.083 388.112 673.288 388.548C673.52 388.148 673.836 387.832 674.236 387.6C674.646 387.369 675.086 387.253 675.558 387.253C676.35 387.253 676.982 387.494 677.454 387.974C677.926 388.446 678.162 389.176 678.162 390.164V394.036H677.053V390.284C677.053 389.599 676.915 389.082 676.64 388.735C676.364 388.388 675.967 388.215 675.451 388.215C674.917 388.215 674.472 388.424 674.116 388.842C673.769 389.252 673.595 389.839 673.595 390.605V394.036H672.474V390.284C672.474 389.599 672.336 389.082 672.06 388.735C671.784 388.388 671.388 388.215 670.871 388.215C670.346 388.215 669.906 388.424 669.549 388.842C669.202 389.252 669.029 389.839 669.029 390.605V394.036H667.907Z" fill="#06152B"/>
<path opacity="0.7" d="M718.559 394.196C717.731 394.196 717.015 393.996 716.409 393.596C715.813 393.186 715.354 392.621 715.034 391.9C714.714 391.17 714.553 390.324 714.553 389.363C714.553 388.401 714.714 387.56 715.034 386.839C715.354 386.109 715.813 385.544 716.409 385.144C717.015 384.734 717.731 384.529 718.559 384.529C719.387 384.529 720.099 384.734 720.695 385.144C721.292 385.544 721.75 386.109 722.071 386.839C722.391 387.56 722.551 388.401 722.551 389.363C722.551 390.324 722.391 391.17 722.071 391.9C721.75 392.621 721.292 393.186 720.695 393.596C720.099 393.996 719.387 394.196 718.559 394.196ZM718.559 393.208C719.102 393.208 719.587 393.057 720.014 392.754C720.451 392.443 720.789 392.002 721.029 391.432C721.278 390.854 721.403 390.164 721.403 389.363C721.403 388.562 721.278 387.876 721.029 387.307C720.789 386.737 720.451 386.301 720.014 385.998C719.587 385.687 719.102 385.531 718.559 385.531C718.007 385.531 717.518 385.687 717.09 385.998C716.663 386.301 716.325 386.737 716.075 387.307C715.826 387.876 715.702 388.562 715.702 389.363C715.702 390.164 715.826 390.854 716.075 391.432C716.325 392.002 716.663 392.443 717.09 392.754C717.518 393.057 718.007 393.208 718.559 393.208ZM724.764 394.036L728.476 385.651H723.348V384.69H729.624V385.531L725.952 394.036H724.764ZM732.789 394.196C732.237 394.196 731.778 394.103 731.413 393.916C731.048 393.729 730.777 393.48 730.599 393.168C730.421 392.857 730.332 392.518 730.332 392.153C730.332 391.477 730.59 390.956 731.106 390.591C731.623 390.226 732.326 390.044 733.216 390.044H735.005V389.964C735.005 389.385 734.854 388.949 734.551 388.655C734.249 388.353 733.844 388.201 733.336 388.201C732.9 388.201 732.522 388.312 732.201 388.535C731.89 388.749 731.694 389.065 731.614 389.483H730.465C730.51 389.002 730.67 388.597 730.946 388.268C731.231 387.939 731.583 387.689 732.001 387.52C732.419 387.342 732.864 387.253 733.336 387.253C734.262 387.253 734.956 387.502 735.419 388.001C735.891 388.49 736.127 389.145 736.127 389.964V394.036H735.125L735.059 392.848C734.872 393.222 734.596 393.542 734.231 393.809C733.875 394.067 733.394 394.196 732.789 394.196ZM732.962 393.248C733.39 393.248 733.755 393.137 734.057 392.915C734.369 392.692 734.605 392.403 734.765 392.047C734.925 391.691 735.005 391.317 735.005 390.925V390.912H733.309C732.651 390.912 732.183 391.027 731.907 391.259C731.64 391.481 731.507 391.762 731.507 392.1C731.507 392.447 731.632 392.728 731.881 392.941C732.139 393.146 732.499 393.248 732.962 393.248ZM737.809 394.036V387.413H738.824L738.904 388.375C739.118 388.019 739.403 387.743 739.759 387.547C740.115 387.351 740.515 387.253 740.961 387.253C741.486 387.253 741.935 387.36 742.309 387.574C742.692 387.787 742.986 388.112 743.19 388.548C743.422 388.148 743.738 387.832 744.138 387.6C744.548 387.369 744.988 387.253 745.46 387.253C746.252 387.253 746.884 387.494 747.356 387.974C747.828 388.446 748.064 389.176 748.064 390.164V394.036H746.956V390.284C746.956 389.599 746.818 389.082 746.542 388.735C746.266 388.388 745.87 388.215 745.353 388.215C744.819 388.215 744.374 388.424 744.018 388.842C743.671 389.252 743.497 389.839 743.497 390.605V394.036H742.376V390.284C742.376 389.599 742.238 389.082 741.962 388.735C741.686 388.388 741.29 388.215 740.774 388.215C740.248 388.215 739.808 388.424 739.452 388.842C739.105 389.252 738.931 389.839 738.931 390.605V394.036H737.809Z" fill="#06152B"/>
</g>
<path d="M66.9961 217.83L75.2081 226.043C83.4681 233.948 100.132 250.833 116.46 262.883C132.836 275.393 149.116 283.068 165.924 266.951C182.252 250.833 198.58 209.388 215.388 209.618C231.668 209.388 248.044 250.833 264.372 262.883C281.036 275.393 297.509 258.508 313.836 266.951C330.453 275.393 346.973 307.628 363.301 295.579C379.821 283.068 396.437 226.273 412.765 230.11C429.237 233.948 445.901 263.902 462.229 296.367C478.605 329.14 494.885 329.14 511.693 308.647C530.303 289.032 539.39 281.359 559.403 270.556C580.514 260.642 593.813 275.393 610.141 258.738C626.805 242.39 643.277 193.27 659.605 185.058C676.221 177.153 692.741 209.388 709.069 213.763C725.589 217.83 742.205 193.27 750.369 180.99L758.533 168.71V365.191H750.321C742.061 365.191 725.397 365.191 709.069 365.191C692.693 365.191 676.413 365.191 659.605 365.191C643.277 365.191 626.949 365.191 610.141 365.191C593.861 365.191 577.485 365.191 561.157 365.191C544.493 365.191 528.021 365.191 511.693 365.191C495.077 365.191 478.557 365.191 462.229 365.191C445.709 365.191 429.093 365.191 412.765 365.191C396.293 365.191 379.629 365.191 363.301 365.191C346.925 365.191 330.645 365.191 313.836 365.191C297.509 365.191 281.181 365.191 264.372 365.191C248.092 365.191 231.716 365.191 215.388 365.191C198.724 365.191 182.252 365.191 165.924 365.191C149.308 365.191 132.788 365.191 116.46 365.191C99.9402 365.191 83.3241 365.191 75.1601 365.191H66.9961V217.83Z" fill="url(#paint0_linear_2_9873)"/>
<g filter="url(#filter0_d_2_9873)">
<circle cx="214.271" cy="212.02" r="7.39446" fill="white"/>
<circle cx="214.271" cy="212.02" r="5.80993" stroke="#FF69B4" stroke-width="3.16905"/>
</g>
<g filter="url(#filter1_d_2_9873)">
<circle cx="300.893" cy="269.063" r="7.39446" fill="white"/>
<circle cx="300.893" cy="269.063" r="5.80993" stroke="#FF69B4" stroke-width="3.16905"/>
</g>
<g filter="url(#filter2_d_2_9873)">
<circle cx="412.865" cy="233.147" r="7.39446" fill="white"/>
<circle cx="412.865" cy="233.147" r="5.80993" stroke="#FF69B4" stroke-width="3.16905"/>
</g>
<g filter="url(#filter3_d_2_9873)">
<circle cx="574.487" cy="272.232" r="7.39446" fill="white"/>
<circle cx="574.487" cy="272.232" r="5.80993" stroke="#FF69B4" stroke-width="3.16905"/>
</g>
<g filter="url(#filter4_d_2_9873)">
<circle cx="666.39" cy="184.556" r="7.39446" fill="white"/>
<circle cx="666.39" cy="184.556" r="5.80993" stroke="#FF69B4" stroke-width="3.16905"/>
</g>
<g filter="url(#filter5_d_2_9873)">
<path fill-rule="evenodd" clip-rule="evenodd" d="M376.95 152.863C371.116 152.863 366.387 157.593 366.387 163.427V201.455C366.387 207.29 371.116 212.019 376.95 212.019L407.377 212.019L411.951 219.942C412.358 220.646 413.374 220.646 413.781 219.942L418.355 212.019L449.838 212.019C455.673 212.019 460.402 207.29 460.402 201.455V163.427C460.402 157.593 455.673 152.863 449.839 152.863H376.95Z" fill="#99B2C6"/>
</g>
<path d="M400.986 174.476C400.301 174.476 399.704 174.351 399.197 174.102C398.69 173.853 398.298 173.505 398.022 173.06C397.746 172.615 397.608 172.099 397.608 171.511H398.783C398.783 171.876 398.868 172.215 399.037 172.526C399.206 172.829 399.451 173.074 399.771 173.261C400.1 173.439 400.505 173.528 400.986 173.528C401.618 173.528 402.108 173.376 402.455 173.074C402.802 172.771 402.976 172.393 402.976 171.939C402.976 171.565 402.896 171.267 402.735 171.044C402.575 170.813 402.357 170.626 402.081 170.483C401.814 170.341 401.502 170.216 401.146 170.109C400.799 170.003 400.434 169.882 400.051 169.749C399.33 169.5 398.796 169.193 398.449 168.828C398.102 168.454 397.928 167.969 397.928 167.372C397.92 166.874 398.035 166.433 398.276 166.05C398.516 165.659 398.854 165.356 399.29 165.142C399.735 164.92 400.261 164.809 400.866 164.809C401.462 164.809 401.979 164.92 402.415 165.142C402.86 165.365 403.203 165.672 403.443 166.064C403.692 166.455 403.821 166.9 403.83 167.399H402.655C402.655 167.141 402.588 166.887 402.455 166.638C402.321 166.38 402.117 166.171 401.841 166.01C401.574 165.85 401.235 165.77 400.826 165.77C400.319 165.761 399.9 165.89 399.571 166.157C399.25 166.424 399.09 166.794 399.09 167.265C399.09 167.666 399.201 167.973 399.424 168.187C399.655 168.4 399.976 168.578 400.385 168.721C400.795 168.854 401.267 169.01 401.801 169.188C402.246 169.348 402.646 169.535 403.002 169.749C403.358 169.963 403.634 170.239 403.83 170.577C404.035 170.915 404.137 171.347 404.137 171.872C404.137 172.317 404.022 172.74 403.79 173.14C403.559 173.532 403.207 173.853 402.735 174.102C402.272 174.351 401.689 174.476 400.986 174.476ZM407.864 174.476C407.312 174.476 406.854 174.382 406.489 174.195C406.124 174.008 405.852 173.759 405.674 173.448C405.496 173.136 405.407 172.798 405.407 172.433C405.407 171.756 405.666 171.236 406.182 170.871C406.698 170.506 407.401 170.323 408.292 170.323H410.081V170.243C410.081 169.664 409.929 169.228 409.627 168.934C409.324 168.632 408.919 168.48 408.412 168.48C407.976 168.48 407.597 168.592 407.277 168.814C406.965 169.028 406.769 169.344 406.689 169.762H405.541C405.585 169.282 405.746 168.877 406.022 168.547C406.306 168.218 406.658 167.969 407.076 167.8C407.495 167.621 407.94 167.532 408.412 167.532C409.337 167.532 410.032 167.782 410.495 168.28C410.966 168.77 411.202 169.424 411.202 170.243V174.315H410.201L410.134 173.127C409.947 173.501 409.671 173.821 409.306 174.088C408.95 174.347 408.47 174.476 407.864 174.476ZM408.038 173.528C408.465 173.528 408.83 173.416 409.133 173.194C409.444 172.971 409.68 172.682 409.84 172.326C410.001 171.97 410.081 171.596 410.081 171.204V171.191H408.385C407.726 171.191 407.259 171.307 406.983 171.538C406.716 171.761 406.582 172.041 406.582 172.379C406.582 172.727 406.707 173.007 406.956 173.221C407.214 173.425 407.575 173.528 408.038 173.528ZM412.885 174.315V164.702H414.006V174.315H412.885ZM418.822 174.476C418.19 174.476 417.63 174.333 417.14 174.048C416.65 173.755 416.263 173.35 415.978 172.833C415.702 172.317 415.564 171.707 415.564 171.004C415.564 170.31 415.702 169.704 415.978 169.188C416.254 168.663 416.637 168.258 417.127 167.973C417.625 167.679 418.199 167.532 418.849 167.532C419.49 167.532 420.042 167.679 420.505 167.973C420.977 168.258 421.337 168.636 421.586 169.108C421.836 169.58 421.96 170.087 421.96 170.63C421.96 170.728 421.956 170.826 421.947 170.924C421.947 171.022 421.947 171.133 421.947 171.258H416.673C416.699 171.765 416.815 172.188 417.02 172.526C417.233 172.856 417.496 173.105 417.808 173.274C418.128 173.443 418.466 173.528 418.822 173.528C419.285 173.528 419.672 173.421 419.984 173.207C420.296 172.994 420.523 172.704 420.665 172.339H421.773C421.595 172.953 421.253 173.465 420.745 173.875C420.247 174.275 419.606 174.476 418.822 174.476ZM418.822 168.48C418.288 168.48 417.812 168.645 417.394 168.975C416.984 169.295 416.748 169.767 416.686 170.39H420.852C420.825 169.793 420.62 169.326 420.238 168.988C419.855 168.65 419.383 168.48 418.822 168.48ZM425.984 174.476C425.191 174.476 424.533 174.275 424.008 173.875C423.482 173.474 423.175 172.931 423.086 172.246H424.235C424.306 172.593 424.488 172.896 424.782 173.154C425.085 173.403 425.49 173.528 425.997 173.528C426.469 173.528 426.816 173.43 427.039 173.234C427.261 173.029 427.372 172.789 427.372 172.513C427.372 172.112 427.225 171.845 426.932 171.712C426.647 171.578 426.242 171.458 425.717 171.351C425.361 171.28 425.005 171.178 424.648 171.044C424.292 170.911 423.994 170.724 423.754 170.483C423.514 170.234 423.393 169.909 423.393 169.509C423.393 168.93 423.607 168.458 424.034 168.093C424.47 167.719 425.058 167.532 425.797 167.532C426.5 167.532 427.074 167.71 427.519 168.067C427.973 168.414 428.236 168.912 428.307 169.562H427.199C427.154 169.224 427.007 168.961 426.758 168.774C426.518 168.578 426.193 168.48 425.783 168.48C425.383 168.48 425.071 168.565 424.849 168.734C424.635 168.903 424.528 169.126 424.528 169.402C424.528 169.669 424.666 169.878 424.942 170.029C425.227 170.181 425.61 170.31 426.091 170.417C426.5 170.506 426.887 170.617 427.252 170.75C427.626 170.875 427.929 171.066 428.16 171.325C428.4 171.574 428.521 171.939 428.521 172.419C428.53 173.016 428.303 173.51 427.84 173.902C427.386 174.284 426.767 174.476 425.984 174.476Z" fill="white"/>
<path d="M391.646 197.329V196.045C392.412 195.436 393.145 194.822 393.843 194.202C394.542 193.583 395.162 192.974 395.702 192.377C396.255 191.768 396.688 191.177 397.004 190.602C397.319 190.016 397.477 189.453 397.477 188.912C397.477 188.552 397.415 188.213 397.291 187.898C397.167 187.571 396.964 187.312 396.683 187.121C396.401 186.918 396.024 186.816 395.55 186.816C394.84 186.816 394.305 187.042 393.945 187.492C393.595 187.943 393.426 188.484 393.438 189.115H391.697C391.708 188.281 391.883 187.582 392.221 187.019C392.57 186.456 393.032 186.028 393.607 185.735C394.193 185.442 394.852 185.295 395.584 185.295C396.7 185.295 397.59 185.611 398.255 186.242C398.931 186.861 399.269 187.729 399.269 188.844C399.269 189.509 399.105 190.168 398.778 190.822C398.463 191.476 398.046 192.106 397.528 192.715C397.021 193.312 396.474 193.876 395.888 194.405C395.302 194.935 394.745 195.414 394.215 195.842H399.624V197.329H391.646ZM400.49 199.323L401.47 195.335H403.245L401.69 199.323H400.49ZM409.348 197.532C408.481 197.532 407.748 197.369 407.151 197.042C406.554 196.715 406.069 196.281 405.697 195.74C405.337 195.199 405.078 194.591 404.92 193.915C404.762 193.239 404.683 192.546 404.683 191.836C404.683 190.529 404.864 189.385 405.224 188.405C405.596 187.425 406.126 186.664 406.813 186.123C407.5 185.571 408.334 185.295 409.314 185.295C410.092 185.295 410.757 185.447 411.309 185.751C411.861 186.056 412.289 186.461 412.593 186.968C412.909 187.475 413.1 188.028 413.168 188.625H411.495C411.393 188.039 411.151 187.588 410.768 187.273C410.385 186.957 409.895 186.799 409.298 186.799C408.475 186.799 407.793 187.188 407.252 187.966C406.723 188.732 406.441 189.915 406.407 191.515C406.678 191.019 407.095 190.597 407.658 190.247C408.233 189.898 408.892 189.723 409.636 189.723C410.3 189.723 410.92 189.881 411.495 190.197C412.081 190.512 412.554 190.957 412.914 191.532C413.286 192.095 413.472 192.766 413.472 193.543C413.472 194.23 413.303 194.878 412.965 195.487C412.627 196.095 412.148 196.591 411.529 196.974C410.92 197.346 410.193 197.532 409.348 197.532ZM409.247 195.977C409.72 195.977 410.143 195.876 410.514 195.673C410.886 195.47 411.179 195.194 411.393 194.845C411.607 194.484 411.714 194.078 411.714 193.628C411.714 192.907 411.478 192.332 411.005 191.904C410.543 191.476 409.951 191.261 409.23 191.261C408.757 191.261 408.328 191.368 407.945 191.583C407.574 191.797 407.281 192.084 407.066 192.445C406.852 192.794 406.745 193.183 406.745 193.611C406.745 194.073 406.852 194.484 407.066 194.845C407.292 195.194 407.59 195.47 407.962 195.673C408.345 195.876 408.774 195.977 409.247 195.977ZM416.198 197.329L420.778 187.036H414.626V185.498H422.621V186.799L418.074 197.329H416.198ZM428.223 197.532C427.435 197.532 426.719 197.391 426.077 197.109C425.446 196.816 424.939 196.411 424.556 195.892C424.184 195.374 423.998 194.766 423.998 194.067C423.998 193.357 424.195 192.721 424.59 192.157C424.995 191.594 425.53 191.211 426.195 191.008C425.598 190.771 425.136 190.428 424.809 189.977C424.482 189.515 424.319 189.008 424.319 188.456C424.319 187.881 424.471 187.357 424.775 186.884C425.08 186.399 425.519 186.016 426.094 185.735C426.68 185.442 427.39 185.295 428.223 185.295C429.057 185.295 429.761 185.442 430.336 185.735C430.922 186.016 431.367 186.399 431.671 186.884C431.976 187.357 432.128 187.881 432.128 188.456C432.128 188.997 431.959 189.504 431.621 189.977C431.294 190.439 430.832 190.783 430.235 191.008C430.899 191.222 431.429 191.611 431.823 192.174C432.229 192.726 432.432 193.357 432.432 194.067C432.432 194.766 432.246 195.374 431.874 195.892C431.502 196.411 430.995 196.816 430.353 197.109C429.722 197.391 429.012 197.532 428.223 197.532ZM428.223 190.433C428.877 190.433 429.39 190.264 429.761 189.926C430.145 189.588 430.336 189.154 430.336 188.625C430.336 188.028 430.15 187.571 429.778 187.256C429.406 186.94 428.888 186.782 428.223 186.782C427.559 186.782 427.04 186.94 426.668 187.256C426.297 187.571 426.111 188.028 426.111 188.625C426.111 189.154 426.297 189.588 426.668 189.926C427.04 190.264 427.559 190.433 428.223 190.433ZM428.223 196.011C429.035 196.011 429.643 195.819 430.049 195.436C430.454 195.042 430.657 194.54 430.657 193.932C430.657 193.256 430.437 192.737 429.998 192.377C429.57 192.005 428.978 191.819 428.223 191.819C427.468 191.819 426.871 192.005 426.432 192.377C425.992 192.737 425.773 193.256 425.773 193.932C425.773 194.54 425.975 195.042 426.381 195.436C426.798 195.819 427.412 196.011 428.223 196.011Z" fill="white"/>
<line x1="412.337" y1="364.135" x2="412.337" y2="240.542" stroke="#605BFF" stroke-width="1.05635" stroke-dasharray="2.11 7.39"/>
<defs>
<filter id="filter0_d_2_9873" x="202.652" y="204.626" width="23.2399" height="23.2399" filterUnits="userSpaceOnUse" color-interpolation-filters="sRGB">
<feFlood flood-opacity="0" result="BackgroundImageFix"/>
<feColorMatrix in="SourceAlpha" type="matrix" values="0 0 0 0 0 0 0 0 0 0 0 0 0 0 0 0 0 0 127 0" result="hardAlpha"/>
<feOffset dy="4.22541"/>
<feGaussianBlur stdDeviation="2.1127"/>
<feColorMatrix type="matrix" values="0 0 0 0 0.376471 0 0 0 0 0.356863 0 0 0 0 1 0 0 0 0.17 0"/>
<feBlend mode="normal" in2="BackgroundImageFix" result="effect1_dropShadow_2_9873"/>
<feBlend mode="normal" in="SourceGraphic" in2="effect1_dropShadow_2_9873" result="shape"/>
</filter>
<filter id="filter1_d_2_9873" x="289.273" y="261.669" width="23.2399" height="23.2399" filterUnits="userSpaceOnUse" color-interpolation-filters="sRGB">
<feFlood flood-opacity="0" result="BackgroundImageFix"/>
<feColorMatrix in="SourceAlpha" type="matrix" values="0 0 0 0 0 0 0 0 0 0 0 0 0 0 0 0 0 0 127 0" result="hardAlpha"/>
<feOffset dy="4.22541"/>
<feGaussianBlur stdDeviation="2.1127"/>
<feColorMatrix type="matrix" values="0 0 0 0 0.376471 0 0 0 0 0.356863 0 0 0 0 1 0 0 0 0.17 0"/>
<feBlend mode="normal" in2="BackgroundImageFix" result="effect1_dropShadow_2_9873"/>
<feBlend mode="normal" in="SourceGraphic" in2="effect1_dropShadow_2_9873" result="shape"/>
</filter>
<filter id="filter2_d_2_9873" x="401.245" y="225.753" width="23.2399" height="23.2399" filterUnits="userSpaceOnUse" color-interpolation-filters="sRGB">
<feFlood flood-opacity="0" result="BackgroundImageFix"/>
<feColorMatrix in="SourceAlpha" type="matrix" values="0 0 0 0 0 0 0 0 0 0 0 0 0 0 0 0 0 0 127 0" result="hardAlpha"/>
<feOffset dy="4.22541"/>
<feGaussianBlur stdDeviation="2.1127"/>
<feColorMatrix type="matrix" values="0 0 0 0 0.376471 0 0 0 0 0.356863 0 0 0 0 1 0 0 0 0.17 0"/>
<feBlend mode="normal" in2="BackgroundImageFix" result="effect1_dropShadow_2_9873"/>
<feBlend mode="normal" in="SourceGraphic" in2="effect1_dropShadow_2_9873" result="shape"/>
</filter>
<filter id="filter3_d_2_9873" x="562.867" y="264.838" width="23.2399" height="23.2399" filterUnits="userSpaceOnUse" color-interpolation-filters="sRGB">
<feFlood flood-opacity="0" result="BackgroundImageFix"/>
<feColorMatrix in="SourceAlpha" type="matrix" values="0 0 0 0 0 0 0 0 0 0 0 0 0 0 0 0 0 0 127 0" result="hardAlpha"/>
<feOffset dy="4.22541"/>
<feGaussianBlur stdDeviation="2.1127"/>
<feColorMatrix type="matrix" values="0 0 0 0 0.376471 0 0 0 0 0.356863 0 0 0 0 1 0 0 0 0.17 0"/>
<feBlend mode="normal" in2="BackgroundImageFix" result="effect1_dropShadow_2_9873"/>
<feBlend mode="normal" in="SourceGraphic" in2="effect1_dropShadow_2_9873" result="shape"/>
</filter>
<filter id="filter4_d_2_9873" x="654.77" y="177.161" width="23.2399" height="23.2399" filterUnits="userSpaceOnUse" color-interpolation-filters="sRGB">
<feFlood flood-opacity="0" result="BackgroundImageFix"/>
<feColorMatrix in="SourceAlpha" type="matrix" values="0 0 0 0 0 0 0 0 0 0 0 0 0 0 0 0 0 0 127 0" result="hardAlpha"/>
<feOffset dy="4.22541"/>
<feGaussianBlur stdDeviation="2.1127"/>
<feColorMatrix type="matrix" values="0 0 0 0 0.376471 0 0 0 0 0.356863 0 0 0 0 1 0 0 0 0.17 0"/>
<feBlend mode="normal" in2="BackgroundImageFix" result="effect1_dropShadow_2_9873"/>
<feBlend mode="normal" in="SourceGraphic" in2="effect1_dropShadow_2_9873" result="shape"/>
</filter>
<filter id="filter5_d_2_9873" x="358.992" y="149.694" width="108.805" height="82.3954" filterUnits="userSpaceOnUse" color-interpolation-filters="sRGB">
<feFlood flood-opacity="0" result="BackgroundImageFix"/>
<feColorMatrix in="SourceAlpha" type="matrix" values="0 0 0 0 0 0 0 0 0 0 0 0 0 0 0 0 0 0 127 0" result="hardAlpha"/>
<feOffset dy="4.22541"/>
<feGaussianBlur stdDeviation="3.69723"/>
<feColorMatrix type="matrix" values="0 0 0 0 0.0117647 0 0 0 0 0.00784314 0 0 0 0 0.160784 0 0 0 0.07 0"/>
<feBlend mode="normal" in2="BackgroundImageFix" result="effect1_dropShadow_2_9873"/>
<feBlend mode="normal" in="SourceGraphic" in2="effect1_dropShadow_2_9873" result="shape"/>
</filter>
<linearGradient id="paint0_linear_2_9873" x1="59.7461" y1="178.217" x2="758.533" y2="176.451" gradientUnits="userSpaceOnUse">
<stop stop-color="#3A36DB" stop-opacity="0.5"/>
<stop offset="1" stop-color="#FF69B4" stop-opacity="0.35"/>
</linearGradient>
</defs>
</svg>
