<svg width="26" height="27" viewBox="0 0 26 27" fill="none" xmlns="http://www.w3.org/2000/svg">
<g opacity="0.4">
<path fill-rule="evenodd" clip-rule="evenodd" d="M8.37428 3.05957H17.2093C20.4656 3.05957 22.2788 4.93988 22.2788 8.16175V19.0739C22.2788 22.3486 20.4656 24.1866 17.2093 24.1866H8.37428C5.1696 24.1866 3.30371 22.3486 3.30371 19.0739V8.16175C3.30371 4.93988 5.1696 3.05957 8.37428 3.05957ZM8.65858 7.9835V7.97294H11.8095C12.2638 7.97294 12.6328 8.34266 12.6328 8.79584C12.6328 9.26169 12.2638 9.63141 11.8095 9.63141H8.65858C8.20423 9.63141 7.83632 9.26169 7.83632 8.80746C7.83632 8.35322 8.20423 7.9835 8.65858 7.9835ZM8.65858 14.4064H16.9233C17.3766 14.4064 17.7455 14.0367 17.7455 13.5825C17.7455 13.1282 17.3766 12.7575 16.9233 12.7575H8.65858C8.20423 12.7575 7.83632 13.1282 7.83632 13.5825C7.83632 14.0367 8.20423 14.4064 8.65858 14.4064ZM8.65874 19.2336H16.9235C17.3441 19.1913 17.6614 18.8311 17.6614 18.4096C17.6614 17.9765 17.3441 17.6174 16.9235 17.5751H8.65874C8.34249 17.5434 8.03678 17.6913 7.86811 17.966C7.69944 18.2301 7.69944 18.5787 7.86811 18.8533C8.03678 19.1174 8.34249 19.2758 8.65874 19.2336Z" fill="#06152B"/>
</g>
</svg>
