<svg width="26" height="26" viewBox="0 0 26 26" fill="none" xmlns="http://www.w3.org/2000/svg">
<g opacity="0.4">
<path fill-rule="evenodd" clip-rule="evenodd" d="M21.6495 14.464C22.0266 14.6647 22.3174 14.9816 22.5221 15.2985C22.9207 15.9534 22.8884 16.7563 22.5006 17.464L21.7465 18.7316C21.3479 19.4077 20.6045 19.8302 19.8396 19.8302C19.4626 19.8302 19.0424 19.7246 18.6977 19.5133C18.4176 19.3338 18.0944 19.2704 17.7496 19.2704C16.6831 19.2704 15.7889 20.1472 15.7566 21.1929C15.7566 22.4077 14.7654 23.3585 13.5265 23.3585H12.0614C10.8117 23.3585 9.82054 22.4077 9.82054 21.1929C9.79899 20.1472 8.90482 19.2704 7.83827 19.2704C7.48276 19.2704 7.15956 19.3338 6.89023 19.5133C6.54549 19.7246 6.11456 19.8302 5.74827 19.8302C4.9726 19.8302 4.22925 19.4077 3.83064 18.7316L3.08729 17.464C2.68868 16.7774 2.66714 15.9534 3.06575 15.2985C3.23812 14.9816 3.56131 14.6647 3.9276 14.464C4.22925 14.3161 4.42317 14.0731 4.60631 13.7879C5.14497 12.8795 4.82178 11.6858 3.90605 11.147C2.83951 10.5449 2.49477 9.20336 3.10884 8.15757L3.83064 6.91108C4.45549 5.86529 5.79136 5.49557 6.86868 6.10825C7.80595 6.6153 9.02332 6.27727 9.57276 5.37937C9.74513 5.08359 9.84209 4.76669 9.82054 4.44978C9.79899 4.0378 9.9175 3.64696 10.1222 3.33005C10.5208 2.67511 11.2426 2.25257 12.029 2.23145H13.5481C14.3453 2.23145 15.0671 2.67511 15.4657 3.33005C15.6596 3.64696 15.7889 4.0378 15.7566 4.44978C15.735 4.76669 15.832 5.08359 16.0044 5.37937C16.5538 6.27727 17.7712 6.6153 18.7192 6.10825C19.7857 5.49557 21.1324 5.86529 21.7465 6.91108L22.4683 8.15757C23.0931 9.20336 22.7484 10.5449 21.6711 11.147C20.7553 11.6858 20.4321 12.8795 20.9816 13.7879C21.1539 14.0731 21.3479 14.3161 21.6495 14.464ZM9.74477 12.8052C9.74477 14.4637 11.113 15.7841 12.8044 15.7841C14.4957 15.7841 15.8316 14.4637 15.8316 12.8052C15.8316 11.1467 14.4957 9.81571 12.8044 9.81571C11.113 9.81571 9.74477 11.1467 9.74477 12.8052Z" fill="#06152B"/>
</g>
</svg>
