<svg width="473" height="432" viewBox="0 0 473 432" fill="none" xmlns="http://www.w3.org/2000/svg">
<rect x="0.0966797" y="0.636719" width="472.189" height="430.991" rx="10.5635" fill="white"/>
<path opacity="0.7" d="M103.441 400.237C102.574 400.237 101.813 400.085 101.159 399.781C100.506 399.476 99.9933 399.043 99.6214 398.479C99.2609 397.916 99.075 397.245 99.0637 396.468H100.957C100.968 397.099 101.188 397.634 101.616 398.074C102.044 398.513 102.647 398.733 103.424 398.733C104.112 398.733 104.647 398.569 105.03 398.243C105.424 397.905 105.622 397.476 105.622 396.958C105.622 396.541 105.526 396.203 105.334 395.944C105.154 395.685 104.9 395.471 104.574 395.302C104.258 395.133 103.892 394.981 103.475 394.845C103.058 394.71 102.619 394.564 102.157 394.406C101.244 394.102 100.557 393.707 100.095 393.223C99.644 392.738 99.4186 392.102 99.4186 391.313C99.4074 390.648 99.5595 390.068 99.875 389.572C100.202 389.076 100.652 388.693 101.227 388.423C101.813 388.141 102.495 388 103.272 388C104.038 388 104.709 388.141 105.283 388.423C105.869 388.704 106.326 389.099 106.653 389.606C106.979 390.102 107.148 390.682 107.16 391.347H105.267C105.267 391.043 105.188 390.755 105.03 390.485C104.872 390.203 104.641 389.972 104.337 389.792C104.033 389.612 103.661 389.521 103.221 389.521C102.658 389.51 102.19 389.651 101.819 389.944C101.458 390.237 101.278 390.643 101.278 391.161C101.278 391.623 101.413 391.978 101.683 392.226C101.954 392.474 102.326 392.682 102.799 392.851C103.272 393.009 103.813 393.195 104.421 393.409C105.007 393.6 105.531 393.831 105.993 394.102C106.455 394.372 106.822 394.727 107.092 395.167C107.374 395.606 107.514 396.164 107.514 396.84C107.514 397.437 107.362 397.995 107.058 398.513C106.754 399.02 106.298 399.437 105.689 399.764C105.081 400.079 104.331 400.237 103.441 400.237ZM112.245 400.237C111.535 400.237 110.949 400.119 110.487 399.882C110.025 399.645 109.682 399.336 109.456 398.952C109.231 398.558 109.118 398.13 109.118 397.668C109.118 396.857 109.434 396.214 110.065 395.741C110.696 395.268 111.597 395.031 112.769 395.031H114.966V394.879C114.966 394.226 114.786 393.736 114.425 393.409C114.076 393.082 113.62 392.919 113.056 392.919C112.561 392.919 112.127 393.043 111.755 393.29C111.394 393.527 111.175 393.882 111.096 394.355H109.304C109.361 393.747 109.563 393.228 109.913 392.8C110.273 392.361 110.724 392.028 111.265 391.803C111.817 391.566 112.42 391.448 113.073 391.448C114.245 391.448 115.152 391.758 115.794 392.378C116.437 392.986 116.758 393.82 116.758 394.879V400.034H115.203L115.051 398.598C114.814 399.06 114.47 399.448 114.02 399.764C113.569 400.079 112.978 400.237 112.245 400.237ZM112.6 398.783C113.085 398.783 113.49 398.671 113.817 398.445C114.155 398.209 114.414 397.899 114.594 397.516C114.786 397.133 114.904 396.71 114.949 396.248H112.955C112.245 396.248 111.738 396.372 111.434 396.62C111.141 396.868 110.994 397.178 110.994 397.55C110.994 397.933 111.135 398.237 111.417 398.462C111.71 398.676 112.104 398.783 112.6 398.783ZM118.847 400.034V387.865H120.638V400.034H118.847ZM126.828 400.237C126.006 400.237 125.273 400.057 124.631 399.696C124 399.324 123.504 398.812 123.144 398.158C122.783 397.505 122.603 396.744 122.603 395.876C122.603 394.997 122.778 394.226 123.127 393.561C123.487 392.896 123.983 392.378 124.614 392.006C125.256 391.634 126 391.448 126.845 391.448C127.668 391.448 128.383 391.634 128.992 392.006C129.6 392.366 130.073 392.851 130.411 393.459C130.749 394.068 130.918 394.738 130.918 395.471C130.918 395.583 130.913 395.707 130.902 395.843C130.902 395.967 130.896 396.107 130.885 396.265H124.361C124.417 397.076 124.682 397.696 125.155 398.124C125.64 398.541 126.197 398.75 126.828 398.75C127.335 398.75 127.758 398.637 128.096 398.412C128.445 398.175 128.704 397.86 128.873 397.465H130.665C130.44 398.254 129.989 398.913 129.313 399.443C128.648 399.972 127.82 400.237 126.828 400.237ZM126.828 392.919C126.231 392.919 125.702 393.099 125.24 393.459C124.778 393.809 124.496 394.338 124.394 395.048H129.127C129.093 394.395 128.862 393.876 128.434 393.493C128.006 393.11 127.471 392.919 126.828 392.919Z" fill="#06152B"/>
<rect x="71.9277" y="386.203" width="15.8453" height="15.8453" rx="5.28176" fill="#3A36DB"/>
<path opacity="0.7" d="M202.004 400.034V388.203H205.84C207.226 388.203 208.364 388.445 209.255 388.93C210.156 389.414 210.821 390.102 211.249 390.992C211.688 391.871 211.908 392.919 211.908 394.136C211.908 395.341 211.688 396.389 211.249 397.279C210.821 398.158 210.156 398.84 209.255 399.324C208.364 399.798 207.226 400.034 205.84 400.034H202.004ZM203.795 398.513H205.773C206.843 398.513 207.688 398.338 208.308 397.989C208.939 397.64 209.39 397.138 209.66 396.485C209.942 395.831 210.083 395.048 210.083 394.136C210.083 393.223 209.942 392.434 209.66 391.769C209.39 391.104 208.939 390.597 208.308 390.248C207.688 389.888 206.843 389.707 205.773 389.707H203.795V398.513ZM214.834 390.062C214.496 390.062 214.214 389.961 213.989 389.758C213.775 389.544 213.668 389.279 213.668 388.964C213.668 388.648 213.775 388.389 213.989 388.186C214.214 387.972 214.496 387.865 214.834 387.865C215.172 387.865 215.448 387.972 215.662 388.186C215.888 388.389 216 388.648 216 388.964C216 389.279 215.888 389.544 215.662 389.758C215.448 389.961 215.172 390.062 214.834 390.062ZM213.938 400.034V391.651H215.73V400.034H213.938ZM221.442 400.237C220.382 400.237 219.509 399.978 218.822 399.46C218.134 398.941 217.74 398.254 217.639 397.398H219.447C219.537 397.781 219.751 398.113 220.089 398.395C220.427 398.665 220.872 398.8 221.425 398.8C221.965 398.8 222.36 398.688 222.608 398.462C222.856 398.237 222.98 397.978 222.98 397.685C222.98 397.257 222.805 396.969 222.456 396.823C222.118 396.665 221.644 396.524 221.036 396.4C220.563 396.299 220.089 396.164 219.616 395.995C219.154 395.826 218.765 395.589 218.45 395.285C218.146 394.969 217.994 394.547 217.994 394.017C217.994 393.285 218.275 392.676 218.839 392.192C219.402 391.696 220.191 391.448 221.205 391.448C222.14 391.448 222.895 391.674 223.47 392.124C224.056 392.575 224.399 393.212 224.501 394.034H222.777C222.72 393.674 222.551 393.392 222.27 393.189C221.999 392.986 221.633 392.885 221.171 392.885C220.72 392.885 220.371 392.981 220.123 393.172C219.875 393.352 219.751 393.589 219.751 393.882C219.751 394.175 219.92 394.406 220.258 394.575C220.608 394.744 221.064 394.896 221.627 395.031C222.191 395.155 222.709 395.302 223.182 395.471C223.667 395.628 224.056 395.865 224.349 396.181C224.642 396.496 224.788 396.958 224.788 397.567C224.799 398.333 224.501 398.969 223.892 399.476C223.295 399.983 222.478 400.237 221.442 400.237ZM229.946 400.034C229.123 400.034 228.47 399.837 227.985 399.443C227.501 399.037 227.258 398.321 227.258 397.296V393.155H225.822V391.651H227.258L227.478 389.521H229.05V391.651H231.416V393.155H229.05V397.296C229.05 397.758 229.146 398.079 229.337 398.26C229.54 398.429 229.884 398.513 230.368 398.513H231.332V400.034H229.946ZM233.264 400.034V391.651H234.869L235.021 393.24C235.314 392.688 235.72 392.254 236.238 391.938C236.768 391.612 237.404 391.448 238.148 391.448V393.324H237.658C237.162 393.324 236.717 393.409 236.323 393.578C235.94 393.736 235.63 394.012 235.393 394.406C235.168 394.789 235.055 395.324 235.055 396.012V400.034H233.264ZM240.698 390.062C240.36 390.062 240.079 389.961 239.853 389.758C239.639 389.544 239.532 389.279 239.532 388.964C239.532 388.648 239.639 388.389 239.853 388.186C240.079 387.972 240.36 387.865 240.698 387.865C241.036 387.865 241.312 387.972 241.526 388.186C241.752 388.389 241.864 388.648 241.864 388.964C241.864 389.279 241.752 389.544 241.526 389.758C241.312 389.961 241.036 390.062 240.698 390.062ZM239.802 400.034V391.651H241.594V400.034H239.802ZM248.675 400.237C248.021 400.237 247.441 400.107 246.934 399.848C246.438 399.589 246.044 399.223 245.751 398.75L245.565 400.034H243.959V387.865H245.751V392.952C246.021 392.558 246.393 392.209 246.866 391.904C247.339 391.6 247.948 391.448 248.692 391.448C249.503 391.448 250.218 391.64 250.838 392.023C251.458 392.406 251.942 392.93 252.292 393.595C252.652 394.259 252.832 395.014 252.832 395.859C252.832 396.705 252.652 397.459 252.292 398.124C251.942 398.778 251.458 399.296 250.838 399.679C250.218 400.051 249.497 400.237 248.675 400.237ZM248.37 398.682C249.137 398.682 249.768 398.423 250.263 397.905C250.759 397.375 251.007 396.688 251.007 395.843C251.007 395.29 250.894 394.8 250.669 394.372C250.444 393.944 250.134 393.612 249.739 393.375C249.345 393.127 248.889 393.003 248.37 393.003C247.604 393.003 246.973 393.268 246.477 393.797C245.993 394.327 245.751 395.009 245.751 395.843C245.751 396.688 245.993 397.375 246.477 397.905C246.973 398.423 247.604 398.682 248.37 398.682ZM257.863 400.237C256.849 400.237 256.049 399.922 255.463 399.291C254.889 398.66 254.601 397.719 254.601 396.468V391.651H256.393V396.282C256.393 397.905 257.058 398.716 258.387 398.716C259.052 398.716 259.598 398.479 260.027 398.006C260.455 397.533 260.669 396.857 260.669 395.978V391.651H262.46V400.034H260.872L260.736 398.564C260.477 399.082 260.094 399.493 259.587 399.798C259.091 400.091 258.517 400.237 257.863 400.237ZM268.255 400.034C267.433 400.034 266.779 399.837 266.294 399.443C265.81 399.037 265.568 398.321 265.568 397.296V393.155H264.131V391.651H265.568L265.787 389.521H267.359V391.651H269.726V393.155H267.359V397.296C267.359 397.758 267.455 398.079 267.647 398.26C267.849 398.429 268.193 398.513 268.678 398.513H269.641V400.034H268.255ZM275.279 400.237C274.457 400.237 273.724 400.057 273.082 399.696C272.451 399.324 271.955 398.812 271.595 398.158C271.234 397.505 271.054 396.744 271.054 395.876C271.054 394.997 271.229 394.226 271.578 393.561C271.939 392.896 272.434 392.378 273.065 392.006C273.708 391.634 274.451 391.448 275.296 391.448C276.119 391.448 276.834 391.634 277.443 392.006C278.051 392.366 278.525 392.851 278.863 393.459C279.201 394.068 279.37 394.738 279.37 395.471C279.37 395.583 279.364 395.707 279.353 395.843C279.353 395.967 279.347 396.107 279.336 396.265H272.812C272.868 397.076 273.133 397.696 273.606 398.124C274.091 398.541 274.648 398.75 275.279 398.75C275.786 398.75 276.209 398.637 276.547 398.412C276.896 398.175 277.155 397.86 277.324 397.465H279.116C278.891 398.254 278.44 398.913 277.764 399.443C277.099 399.972 276.271 400.237 275.279 400.237ZM275.279 392.919C274.682 392.919 274.153 393.099 273.691 393.459C273.229 393.809 272.947 394.338 272.846 395.048H277.578C277.544 394.395 277.313 393.876 276.885 393.493C276.457 393.11 275.922 392.919 275.279 392.919Z" fill="#06152B"/>
<rect x="174.395" y="386.203" width="15.8453" height="15.8453" rx="5.28176" fill="#03A89E"/>
<path opacity="0.7" d="M347.78 400.034V388.203H351.853C352.789 388.203 353.555 388.361 354.152 388.676C354.76 388.992 355.211 389.42 355.504 389.961C355.797 390.49 355.944 391.082 355.944 391.735C355.944 392.468 355.746 393.133 355.352 393.73C354.969 394.327 354.366 394.755 353.544 395.014L356.062 400.034H353.983L351.684 395.268H349.572V400.034H347.78ZM349.572 393.916H351.752C352.563 393.916 353.155 393.719 353.527 393.324C353.91 392.93 354.101 392.417 354.101 391.786C354.101 391.155 353.915 390.654 353.544 390.282C353.172 389.899 352.569 389.707 351.735 389.707H349.572V393.916ZM361.405 400.237C360.582 400.237 359.85 400.057 359.208 399.696C358.577 399.324 358.081 398.812 357.72 398.158C357.36 397.505 357.18 396.744 357.18 395.876C357.18 394.997 357.354 394.226 357.703 393.561C358.064 392.896 358.56 392.378 359.191 392.006C359.833 391.634 360.577 391.448 361.422 391.448C362.244 391.448 362.96 391.634 363.568 392.006C364.177 392.366 364.65 392.851 364.988 393.459C365.326 394.068 365.495 394.738 365.495 395.471C365.495 395.583 365.489 395.707 365.478 395.843C365.478 395.967 365.473 396.107 365.461 396.265H358.937C358.994 397.076 359.258 397.696 359.732 398.124C360.216 398.541 360.774 398.75 361.405 398.75C361.912 398.75 362.335 398.637 362.673 398.412C363.022 398.175 363.281 397.86 363.45 397.465H365.242C365.016 398.254 364.566 398.913 363.889 399.443C363.225 399.972 362.396 400.237 361.405 400.237ZM361.405 392.919C360.808 392.919 360.278 393.099 359.816 393.459C359.354 393.809 359.072 394.338 358.971 395.048H363.704C363.67 394.395 363.439 393.876 363.011 393.493C362.582 393.11 362.047 392.919 361.405 392.919ZM370.655 400.034C369.832 400.034 369.179 399.837 368.694 399.443C368.21 399.037 367.968 398.321 367.968 397.296V393.155H366.531V391.651H367.968L368.187 389.521H369.759V391.651H372.125V393.155H369.759V397.296C369.759 397.758 369.855 398.079 370.047 398.26C370.249 398.429 370.593 398.513 371.078 398.513H372.041V400.034H370.655ZM377.066 400.237C376.052 400.237 375.252 399.922 374.666 399.291C374.091 398.66 373.804 397.719 373.804 396.468V391.651H375.595V396.282C375.595 397.905 376.26 398.716 377.59 398.716C378.254 398.716 378.801 398.479 379.229 398.006C379.657 397.533 379.871 396.857 379.871 395.978V391.651H381.663V400.034H380.074L379.939 398.564C379.68 399.082 379.297 399.493 378.79 399.798C378.294 400.091 377.719 400.237 377.066 400.237ZM383.942 400.034V391.651H385.548L385.7 393.24C385.993 392.688 386.398 392.254 386.917 391.938C387.446 391.612 388.083 391.448 388.827 391.448V393.324H388.336C387.841 393.324 387.396 393.409 387.001 393.578C386.618 393.736 386.308 394.012 386.072 394.406C385.846 394.789 385.734 395.324 385.734 396.012V400.034H383.942ZM390.363 400.034V391.651H391.951L392.087 393.121C392.346 392.603 392.723 392.197 393.219 391.904C393.726 391.6 394.306 391.448 394.96 391.448C395.974 391.448 396.768 391.764 397.343 392.395C397.929 393.026 398.222 393.966 398.222 395.217V400.034H396.447V395.403C396.447 393.781 395.782 392.969 394.453 392.969C393.788 392.969 393.236 393.206 392.797 393.679C392.368 394.152 392.154 394.828 392.154 395.707V400.034H390.363Z" fill="#06152B"/>
<rect x="320.171" y="386.203" width="15.8453" height="15.8453" rx="5.28176" fill="#FF69B4"/>
<circle cx="236.719" cy="207.681" r="106.163" stroke="#F1F4FA" stroke-width="15.8453"/>
<path d="M189.389 297.212C186.081 303.469 178.277 305.917 172.429 301.929C162.866 295.405 154.33 287.45 147.132 278.32C137.282 265.828 130.154 251.414 126.204 236.003C122.255 220.593 121.573 204.526 124.201 188.837C126.121 177.37 129.779 166.29 135.026 155.971C138.234 149.662 146.254 148.055 152.164 151.95V151.95C158.074 155.845 159.611 163.766 156.61 170.176C153.214 177.431 150.81 185.131 149.48 193.071C147.443 205.235 147.972 217.692 151.034 229.64C154.096 241.588 159.622 252.764 167.259 262.45C172.244 268.771 178.055 274.367 184.522 279.094C190.236 283.27 192.697 290.954 189.389 297.212V297.212Z" fill="#FF69B4"/>
<path d="M315.301 267.705C321.973 272.802 323.315 282.429 317.378 288.365C300.053 305.685 277.5 317.07 252.987 320.602C228.475 324.134 203.624 319.578 182.115 307.853C174.744 303.834 173.313 294.219 178.275 287.447V287.447C183.238 280.674 192.712 279.353 200.27 283.009C215.186 290.227 232.025 292.904 248.652 290.509C265.278 288.113 280.676 280.792 292.949 269.657C299.167 264.016 308.629 262.609 315.301 267.705V267.705Z" fill="#03A89E"/>
<g filter="url(#filter0_d_2_9848)">
<path d="M236.719 113.487C236.719 102.501 245.691 93.4185 256.511 95.3245C273.146 98.2551 289.009 104.859 302.903 114.754C322.227 128.518 336.78 147.963 344.536 170.384C352.292 192.805 352.865 217.087 346.176 239.849C341.366 256.214 332.975 271.208 321.706 283.791C314.377 291.975 301.71 290.379 294.921 281.741V281.741C288.133 273.103 289.914 260.705 296.449 251.873C301.605 244.905 305.532 237.046 308.005 228.631C312.362 213.807 311.988 197.993 306.937 183.39C301.886 168.788 292.408 156.124 279.822 147.16C272.678 142.072 264.735 138.32 256.375 136.027C245.78 133.12 236.719 124.473 236.719 113.487V113.487Z" fill="#3A36DB"/>
</g>
<path d="M211.453 207.413C209.991 207.413 208.671 207.16 207.493 206.652C206.316 206.124 205.372 205.383 204.661 204.429C203.971 203.475 203.626 202.368 203.626 201.109C203.626 199.81 203.961 198.673 204.631 197.698C205.321 196.724 206.225 196.023 207.341 195.597C206.367 195.171 205.595 194.561 205.027 193.77C204.458 192.958 204.174 192.054 204.174 191.059C204.174 190.044 204.448 189.11 204.996 188.257C205.544 187.384 206.357 186.684 207.433 186.156C208.529 185.628 209.869 185.364 211.453 185.364C213.036 185.364 214.366 185.628 215.442 186.156C216.518 186.684 217.33 187.384 217.879 188.257C218.427 189.11 218.701 190.044 218.701 191.059C218.701 192.034 218.406 192.937 217.818 193.77C217.249 194.582 216.488 195.191 215.533 195.597C216.67 196.023 217.574 196.724 218.244 197.698C218.914 198.673 219.249 199.81 219.249 201.109C219.249 202.368 218.904 203.475 218.214 204.429C217.523 205.383 216.579 206.124 215.381 206.652C214.204 207.16 212.894 207.413 211.453 207.413ZM211.453 194.44C212.508 194.44 213.341 194.166 213.95 193.617C214.559 193.069 214.863 192.369 214.863 191.516C214.863 190.582 214.559 189.851 213.95 189.323C213.361 188.795 212.529 188.531 211.453 188.531C210.356 188.531 209.514 188.795 208.925 189.323C208.336 189.851 208.042 190.582 208.042 191.516C208.042 192.389 208.336 193.1 208.925 193.648C209.534 194.176 210.377 194.44 211.453 194.44ZM211.453 204.155C212.752 204.155 213.737 203.84 214.407 203.211C215.077 202.561 215.412 201.749 215.412 200.774C215.412 199.698 215.056 198.856 214.346 198.246C213.655 197.637 212.691 197.333 211.453 197.333C210.214 197.333 209.229 197.637 208.498 198.246C207.788 198.856 207.433 199.698 207.433 200.774C207.433 201.749 207.768 202.561 208.438 203.211C209.128 203.84 210.133 204.155 211.453 204.155ZM231.824 207.413C229.854 207.413 228.169 206.956 226.768 206.043C225.367 205.109 224.281 203.82 223.51 202.175C222.759 200.51 222.383 198.581 222.383 196.389C222.383 194.216 222.759 192.298 223.51 190.633C224.281 188.968 225.367 187.679 226.768 186.765C228.169 185.831 229.854 185.364 231.824 185.364C233.793 185.364 235.478 185.831 236.879 186.765C238.28 187.679 239.356 188.968 240.108 190.633C240.879 192.298 241.265 194.216 241.265 196.389C241.265 198.581 240.879 200.51 240.108 202.175C239.356 203.82 238.28 205.109 236.879 206.043C235.478 206.956 233.793 207.413 231.824 207.413ZM231.824 203.911C233.428 203.911 234.737 203.241 235.753 201.901C236.768 200.561 237.275 198.724 237.275 196.389C237.275 194.054 236.768 192.216 235.753 190.876C234.737 189.536 233.428 188.866 231.824 188.866C230.2 188.866 228.88 189.536 227.865 190.876C226.87 192.216 226.372 194.054 226.372 196.389C226.372 198.724 226.87 200.561 227.865 201.901C228.88 203.241 230.2 203.911 231.824 203.911ZM249.09 196.206C248.116 196.206 247.233 195.993 246.441 195.566C245.649 195.12 245.02 194.49 244.553 193.678C244.086 192.866 243.852 191.902 243.852 190.785C243.852 189.668 244.086 188.704 244.553 187.892C245.02 187.08 245.649 186.461 246.441 186.034C247.233 185.587 248.126 185.364 249.121 185.364C250.095 185.364 250.968 185.587 251.74 186.034C252.532 186.461 253.161 187.08 253.628 187.892C254.095 188.704 254.329 189.668 254.329 190.785C254.329 191.902 254.095 192.866 253.628 193.678C253.161 194.49 252.532 195.12 251.74 195.566C250.948 195.993 250.065 196.206 249.09 196.206ZM247.933 207.048L259.963 185.73H263.77L251.74 207.048H247.933ZM249.09 193.496C249.679 193.496 250.187 193.272 250.613 192.826C251.04 192.359 251.253 191.678 251.253 190.785C251.253 189.892 251.04 189.212 250.613 188.745C250.207 188.278 249.7 188.044 249.09 188.044C248.481 188.044 247.964 188.278 247.537 188.745C247.131 189.212 246.928 189.892 246.928 190.785C246.928 191.678 247.131 192.359 247.537 192.826C247.964 193.272 248.481 193.496 249.09 193.496ZM262.734 207.413C261.76 207.413 260.876 207.2 260.085 206.774C259.293 206.327 258.663 205.698 258.196 204.886C257.729 204.073 257.496 203.109 257.496 201.992C257.496 200.876 257.729 199.921 258.196 199.13C258.663 198.318 259.293 197.698 260.085 197.272C260.876 196.825 261.77 196.602 262.765 196.602C263.739 196.602 264.612 196.825 265.384 197.272C266.175 197.698 266.805 198.318 267.272 199.13C267.739 199.921 267.972 200.876 267.972 201.992C267.972 203.109 267.739 204.073 267.272 204.886C266.805 205.698 266.175 206.327 265.384 206.774C264.612 207.2 263.729 207.413 262.734 207.413ZM262.734 204.703C263.343 204.703 263.851 204.48 264.257 204.033C264.683 203.566 264.896 202.886 264.896 201.992C264.896 201.099 264.683 200.419 264.257 199.952C263.851 199.485 263.343 199.251 262.734 199.251C262.125 199.251 261.607 199.485 261.181 199.952C260.775 200.419 260.572 201.099 260.572 201.992C260.572 202.886 260.775 203.566 261.181 204.033C261.607 204.48 262.125 204.703 262.734 204.703Z" fill="#06152B"/>
<path opacity="0.7" d="M192.099 231.021V220.643H188.6V219.189H197.372V220.643H193.89V231.021H192.099ZM198.09 231.021V222.637H199.695L199.848 224.226C200.141 223.674 200.546 223.24 201.064 222.925C201.594 222.598 202.231 222.434 202.974 222.434V224.311H202.484C201.988 224.311 201.543 224.395 201.149 224.564C200.766 224.722 200.456 224.998 200.219 225.392C199.994 225.775 199.881 226.311 199.881 226.998V231.021H198.09ZM207.35 231.223C206.64 231.223 206.054 231.105 205.592 230.868C205.13 230.632 204.786 230.322 204.561 229.939C204.336 229.544 204.223 229.116 204.223 228.654C204.223 227.843 204.539 227.201 205.17 226.727C205.801 226.254 206.702 226.018 207.874 226.018H210.071V225.866C210.071 225.212 209.891 224.722 209.53 224.395C209.181 224.068 208.725 223.905 208.161 223.905C207.665 223.905 207.232 224.029 206.86 224.277C206.499 224.513 206.279 224.868 206.201 225.342H204.409C204.465 224.733 204.668 224.215 205.017 223.787C205.378 223.347 205.829 223.015 206.37 222.789C206.922 222.553 207.525 222.434 208.178 222.434C209.35 222.434 210.257 222.744 210.899 223.364C211.542 223.973 211.863 224.806 211.863 225.866V231.021H210.308L210.156 229.584C209.919 230.046 209.575 230.435 209.125 230.75C208.674 231.066 208.082 231.223 207.35 231.223ZM207.705 229.77C208.189 229.77 208.595 229.657 208.922 229.432C209.26 229.195 209.519 228.885 209.699 228.502C209.891 228.119 210.009 227.697 210.054 227.235H208.06C207.35 227.235 206.843 227.358 206.539 227.606C206.246 227.854 206.099 228.164 206.099 228.536C206.099 228.919 206.24 229.223 206.522 229.449C206.815 229.663 207.209 229.77 207.705 229.77ZM213.952 231.021V222.637H215.54L215.676 224.108C215.935 223.589 216.312 223.184 216.808 222.891C217.315 222.587 217.895 222.434 218.549 222.434C219.563 222.434 220.357 222.75 220.932 223.381C221.518 224.012 221.811 224.953 221.811 226.204V231.021H220.036V226.389C220.036 224.767 219.371 223.956 218.042 223.956C217.377 223.956 216.825 224.192 216.385 224.665C215.957 225.139 215.743 225.815 215.743 226.694V231.021H213.952ZM227.267 231.223C226.208 231.223 225.335 230.964 224.648 230.446C223.96 229.928 223.566 229.24 223.465 228.384H225.273C225.363 228.767 225.577 229.099 225.915 229.381C226.253 229.651 226.698 229.787 227.251 229.787C227.791 229.787 228.186 229.674 228.434 229.449C228.682 229.223 228.805 228.964 228.805 228.671C228.805 228.243 228.631 227.956 228.282 227.809C227.943 227.651 227.47 227.511 226.862 227.387C226.389 227.285 225.915 227.15 225.442 226.981C224.98 226.812 224.591 226.575 224.276 226.271C223.972 225.956 223.819 225.533 223.819 225.004C223.819 224.271 224.101 223.663 224.665 223.178C225.228 222.682 226.017 222.434 227.031 222.434C227.966 222.434 228.721 222.66 229.296 223.111C229.882 223.561 230.225 224.198 230.327 225.02H228.603C228.546 224.66 228.377 224.378 228.096 224.175C227.825 223.973 227.459 223.871 226.997 223.871C226.546 223.871 226.197 223.967 225.949 224.158C225.701 224.339 225.577 224.575 225.577 224.868C225.577 225.161 225.746 225.392 226.084 225.561C226.434 225.73 226.89 225.882 227.453 226.018C228.017 226.142 228.535 226.288 229.008 226.457C229.493 226.615 229.882 226.851 230.174 227.167C230.467 227.482 230.614 227.944 230.614 228.553C230.625 229.319 230.327 229.956 229.718 230.463C229.121 230.97 228.304 231.223 227.267 231.223ZM235.409 231.223C234.699 231.223 234.113 231.105 233.651 230.868C233.19 230.632 232.846 230.322 232.62 229.939C232.395 229.544 232.282 229.116 232.282 228.654C232.282 227.843 232.598 227.201 233.229 226.727C233.86 226.254 234.761 226.018 235.933 226.018H238.13V225.866C238.13 225.212 237.95 224.722 237.59 224.395C237.24 224.068 236.784 223.905 236.221 223.905C235.725 223.905 235.291 224.029 234.919 224.277C234.559 224.513 234.339 224.868 234.26 225.342H232.468C232.525 224.733 232.728 224.215 233.077 223.787C233.437 223.347 233.888 223.015 234.429 222.789C234.981 222.553 235.584 222.434 236.237 222.434C237.409 222.434 238.316 222.744 238.959 223.364C239.601 223.973 239.922 224.806 239.922 225.866V231.021H238.367L238.215 229.584C237.978 230.046 237.635 230.435 237.184 230.75C236.733 231.066 236.142 231.223 235.409 231.223ZM235.764 229.77C236.249 229.77 236.654 229.657 236.981 229.432C237.319 229.195 237.578 228.885 237.759 228.502C237.95 228.119 238.068 227.697 238.114 227.235H236.119C235.409 227.235 234.902 227.358 234.598 227.606C234.305 227.854 234.159 228.164 234.159 228.536C234.159 228.919 234.299 229.223 234.581 229.449C234.874 229.663 235.268 229.77 235.764 229.77ZM245.983 231.223C245.16 231.223 244.422 231.037 243.769 230.666C243.126 230.294 242.619 229.781 242.248 229.128C241.887 228.463 241.707 227.697 241.707 226.829C241.707 225.961 241.887 225.201 242.248 224.547C242.619 223.882 243.126 223.364 243.769 222.992C244.422 222.62 245.16 222.434 245.983 222.434C247.019 222.434 247.887 222.705 248.586 223.246C249.296 223.787 249.752 224.519 249.955 225.443H248.079C247.966 224.981 247.718 224.62 247.335 224.361C246.952 224.102 246.501 223.973 245.983 223.973C245.543 223.973 245.138 224.085 244.766 224.311C244.394 224.525 244.095 224.846 243.87 225.274C243.645 225.691 243.532 226.209 243.532 226.829C243.532 227.449 243.645 227.973 243.87 228.401C244.095 228.818 244.394 229.139 244.766 229.364C245.138 229.59 245.543 229.702 245.983 229.702C246.501 229.702 246.952 229.573 247.335 229.313C247.718 229.054 247.966 228.688 248.079 228.215H249.955C249.763 229.116 249.312 229.843 248.603 230.395C247.893 230.947 247.019 231.223 245.983 231.223ZM255.248 231.021C254.426 231.021 253.772 230.823 253.288 230.429C252.803 230.023 252.561 229.308 252.561 228.282V224.142H251.124V222.637H252.561L252.781 220.508H254.352V222.637H256.719V224.142H254.352V228.282C254.352 228.744 254.448 229.066 254.64 229.246C254.843 229.415 255.186 229.499 255.671 229.499H256.634V231.021H255.248ZM259.58 221.049C259.242 221.049 258.96 220.947 258.735 220.744C258.521 220.53 258.414 220.265 258.414 219.95C258.414 219.634 258.521 219.375 258.735 219.172C258.96 218.958 259.242 218.851 259.58 218.851C259.918 218.851 260.194 218.958 260.408 219.172C260.634 219.375 260.746 219.634 260.746 219.95C260.746 220.265 260.634 220.53 260.408 220.744C260.194 220.947 259.918 221.049 259.58 221.049ZM258.684 231.021V222.637H260.476V231.021H258.684ZM266.762 231.223C265.962 231.223 265.241 231.043 264.599 230.682C263.968 230.311 263.466 229.798 263.094 229.144C262.723 228.48 262.537 227.708 262.537 226.829C262.537 225.95 262.723 225.184 263.094 224.53C263.477 223.865 263.99 223.353 264.632 222.992C265.275 222.62 265.99 222.434 266.779 222.434C267.579 222.434 268.294 222.62 268.925 222.992C269.568 223.353 270.075 223.865 270.447 224.53C270.83 225.184 271.021 225.95 271.021 226.829C271.021 227.708 270.83 228.48 270.447 229.144C270.075 229.798 269.568 230.311 268.925 230.682C268.283 231.043 267.562 231.223 266.762 231.223ZM266.762 229.685C267.19 229.685 267.585 229.578 267.945 229.364C268.317 229.15 268.616 228.835 268.841 228.418C269.066 227.989 269.179 227.46 269.179 226.829C269.179 226.198 269.066 225.674 268.841 225.257C268.627 224.829 268.334 224.508 267.962 224.294C267.601 224.08 267.207 223.973 266.779 223.973C266.351 223.973 265.951 224.08 265.579 224.294C265.218 224.508 264.925 224.829 264.7 225.257C264.475 225.674 264.362 226.198 264.362 226.829C264.362 227.46 264.475 227.989 264.7 228.418C264.925 228.835 265.218 229.15 265.579 229.364C265.939 229.578 266.334 229.685 266.762 229.685ZM272.959 231.021V222.637H274.547L274.683 224.108C274.942 223.589 275.319 223.184 275.815 222.891C276.322 222.587 276.902 222.434 277.556 222.434C278.57 222.434 279.364 222.75 279.939 223.381C280.525 224.012 280.818 224.953 280.818 226.204V231.021H279.043V226.389C279.043 224.767 278.379 223.956 277.049 223.956C276.384 223.956 275.832 224.192 275.393 224.665C274.964 225.139 274.75 225.815 274.75 226.694V231.021H272.959ZM286.275 231.223C285.215 231.223 284.342 230.964 283.655 230.446C282.967 229.928 282.573 229.24 282.472 228.384H284.28C284.37 228.767 284.584 229.099 284.922 229.381C285.26 229.651 285.706 229.787 286.258 229.787C286.799 229.787 287.193 229.674 287.441 229.449C287.689 229.223 287.813 228.964 287.813 228.671C287.813 228.243 287.638 227.956 287.289 227.809C286.951 227.651 286.477 227.511 285.869 227.387C285.396 227.285 284.922 227.15 284.449 226.981C283.987 226.812 283.598 226.575 283.283 226.271C282.979 225.956 282.827 225.533 282.827 225.004C282.827 224.271 283.108 223.663 283.672 223.178C284.235 222.682 285.024 222.434 286.038 222.434C286.973 222.434 287.728 222.66 288.303 223.111C288.889 223.561 289.232 224.198 289.334 225.02H287.61C287.553 224.66 287.384 224.378 287.103 224.175C286.832 223.973 286.466 223.871 286.004 223.871C285.553 223.871 285.204 223.967 284.956 224.158C284.708 224.339 284.584 224.575 284.584 224.868C284.584 225.161 284.753 225.392 285.091 225.561C285.441 225.73 285.897 225.882 286.46 226.018C287.024 226.142 287.542 226.288 288.015 226.457C288.5 226.615 288.889 226.851 289.182 227.167C289.475 227.482 289.621 227.944 289.621 228.553C289.632 229.319 289.334 229.956 288.725 230.463C288.128 230.97 287.311 231.223 286.275 231.223Z" fill="#06152B"/>
<defs>
<filter id="filter0_d_2_9848" x="232.493" y="95.0703" width="122.537" height="202.529" filterUnits="userSpaceOnUse" color-interpolation-filters="sRGB">
<feFlood flood-opacity="0" result="BackgroundImageFix"/>
<feColorMatrix in="SourceAlpha" type="matrix" values="0 0 0 0 0 0 0 0 0 0 0 0 0 0 0 0 0 0 127 0" result="hardAlpha"/>
<feOffset dy="4.22541"/>
<feGaussianBlur stdDeviation="2.1127"/>
<feColorMatrix type="matrix" values="0 0 0 0 0.356863 0 0 0 0 0.576471 0 0 0 0 1 0 0 0 0.24 0"/>
<feBlend mode="normal" in2="BackgroundImageFix" result="effect1_dropShadow_2_9848"/>
<feBlend mode="normal" in="SourceGraphic" in2="effect1_dropShadow_2_9848" result="shape"/>
</filter>
</defs>
</svg>
