<svg width="68" height="19" viewBox="0 0 68 19" fill="none" xmlns="http://www.w3.org/2000/svg">
<path d="M5.3823 18L0.64075 0.0589994H4.15206L7.38144 14.3349L11.1747 0.0589994H14.7885L18.4792 14.3349L21.7086 0.0589994H25.2456L20.3758 18H16.4801L12.9175 4.69803L9.25243 18H5.3823ZM32.2946 18.3076C31.0644 18.3076 29.9537 18.0256 28.9627 17.4618C27.9888 16.8979 27.2113 16.1205 26.6304 15.1294C26.0665 14.1213 25.7846 12.9594 25.7846 11.6438C25.7846 10.3281 26.0751 9.17474 26.656 8.18371C27.2369 7.1756 28.0144 6.38961 28.9883 5.82575C29.9794 5.26189 31.09 4.97996 32.3202 4.97996C33.5334 4.97996 34.6269 5.26189 35.6009 5.82575C36.5919 6.38961 37.3693 7.1756 37.9332 8.18371C38.5141 9.17474 38.8046 10.3281 38.8046 11.6438C38.8046 12.9594 38.5141 14.1213 37.9332 15.1294C37.3693 16.1205 36.5919 16.8979 35.6009 17.4618C34.6098 18.0256 33.5078 18.3076 32.2946 18.3076ZM32.2946 15.4626C33.1489 15.4626 33.8922 15.1465 34.5244 14.5143C35.1566 13.865 35.4727 12.9082 35.4727 11.6438C35.4727 10.3793 35.1566 9.43104 34.5244 8.79883C33.8922 8.14954 33.1575 7.82489 32.3202 7.82489C31.4488 7.82489 30.697 8.14954 30.0648 8.79883C29.4497 9.43104 29.1421 10.3793 29.1421 11.6438C29.1421 12.9082 29.4497 13.865 30.0648 14.5143C30.697 15.1465 31.4403 15.4626 32.2946 15.4626ZM41.7379 18V5.28752H44.634L44.8903 7.44044C45.2833 6.68863 45.8472 6.09059 46.5819 5.64634C47.3337 5.20209 48.2137 4.97996 49.2218 4.97996C50.7938 4.97996 52.0155 5.47547 52.8869 6.4665C53.7583 7.45753 54.194 8.90989 54.194 10.8236V18H50.9134V11.1312C50.9134 10.0376 50.6913 9.20037 50.247 8.61942C49.8028 8.03847 49.1108 7.748 48.171 7.748C47.2483 7.748 46.4879 8.07265 45.8899 8.72194C45.309 9.37123 45.0185 10.2768 45.0185 11.4387V18H41.7379ZM62.5853 18.3076C61.4575 18.3076 60.4665 18.1281 59.6122 17.7693C58.7578 17.3934 58.0744 16.8808 57.5618 16.2315C57.0492 15.5822 56.7416 14.8304 56.6391 13.9761H59.9454C60.0479 14.4716 60.3213 14.8988 60.7655 15.2576C61.2269 15.5993 61.8164 15.7702 62.534 15.7702C63.2516 15.7702 63.7728 15.625 64.0974 15.3345C64.4392 15.044 64.61 14.7108 64.61 14.3349C64.61 13.7881 64.3708 13.4208 63.8924 13.2328C63.414 13.0278 62.7476 12.8313 61.8932 12.6433C61.3465 12.5237 60.7912 12.3785 60.2273 12.2076C59.6634 12.0368 59.1423 11.8232 58.6639 11.5669C58.2025 11.2935 57.8266 10.9517 57.5361 10.5417C57.2457 10.1145 57.1004 9.59336 57.1004 8.97824C57.1004 7.85052 57.5447 6.90221 58.4332 6.13331C59.3388 5.36441 60.6032 4.97996 62.2264 4.97996C63.7301 4.97996 64.9261 5.33024 65.8146 6.03079C66.7202 6.73134 67.2585 7.69674 67.4293 8.92698H64.3281C64.1401 7.98721 63.431 7.51733 62.2008 7.51733C61.5857 7.51733 61.1073 7.63694 60.7655 7.87615C60.4409 8.11536 60.2786 8.41438 60.2786 8.7732C60.2786 9.14911 60.5263 9.44812 61.0218 9.67025C61.5173 9.89238 62.1752 10.0974 62.9953 10.2854C63.8838 10.4904 64.6955 10.7211 65.4302 10.9774C66.182 11.2166 66.78 11.584 67.2243 12.0795C67.6685 12.5579 67.8907 13.2499 67.8907 14.1555C67.9078 14.9415 67.7027 15.6506 67.2755 16.2828C66.8484 16.915 66.2333 17.4105 65.4302 17.7693C64.6271 18.1281 63.6788 18.3076 62.5853 18.3076Z" fill="#06152B"/>
</svg>
