<svg width="22" height="22" viewBox="0 0 22 22" fill="none" xmlns="http://www.w3.org/2000/svg">
<path fill-rule="evenodd" clip-rule="evenodd" d="M9.47183 1.83563C8.76517 1.83563 8.16399 2.3277 7.99524 2.99092H13.6696C13.5008 2.3277 12.8996 1.83563 12.193 1.83563H9.47183ZM15.2726 2.99034H17.3609C19.5757 2.99034 21.3793 4.81956 21.3793 7.06596C21.3793 7.06596 21.316 8.01694 21.2949 9.34125C21.2928 9.44608 21.2422 9.54878 21.1588 9.61082C20.6515 9.98629 20.1875 10.2965 20.1453 10.3179C18.3945 11.4946 16.36 12.3226 14.1926 12.7344C14.0512 12.7622 13.912 12.6884 13.8403 12.5622C13.2328 11.5074 12.0979 10.8207 10.8323 10.8207C9.57511 10.8207 8.42971 11.4999 7.80428 12.5558C7.73151 12.6798 7.5944 12.7515 7.45412 12.7248C5.30465 12.3119 3.27014 11.485 1.52989 10.3286L0.517385 9.62259C0.433009 9.5691 0.380274 9.47283 0.380274 9.36585C0.348633 8.8203 0.295898 7.06596 0.295898 7.06596C0.295898 4.81956 2.09943 2.99034 4.31429 2.99034H6.39204C6.59243 1.43925 7.88971 0.230469 9.47175 0.230469H12.1929C13.7749 0.230469 15.0722 1.43925 15.2726 2.99034ZM21.0201 11.6537L20.9779 11.675C18.8474 13.1085 16.2844 14.0605 13.5949 14.4563C13.2152 14.5098 12.8355 14.2638 12.7301 13.8787C12.498 13.0015 11.7492 12.4238 10.8527 12.4238H10.8421H10.821C9.92453 12.4238 9.17569 13.0015 8.94365 13.8787C8.83818 14.2638 8.45849 14.5098 8.07879 14.4563C5.38928 14.0605 2.82634 13.1085 0.695831 11.675C0.685284 11.6643 0.579813 11.6002 0.495436 11.6537C0.400513 11.7071 0.400513 11.8355 0.400513 11.8355L0.474342 17.2911C0.474342 19.5375 2.26735 21.356 4.48223 21.356H17.1809C19.3958 21.356 21.1888 19.5375 21.1888 17.2911L21.2732 11.8355C21.2732 11.8355 21.2732 11.7071 21.1783 11.6537C21.1255 11.6216 21.0623 11.6323 21.0201 11.6537ZM11.6226 16.1359C11.6226 16.5852 11.2745 16.9382 10.8315 16.9382C10.3991 16.9382 10.0405 16.5852 10.0405 16.1359V14.756C10.0405 14.3174 10.3991 13.9537 10.8315 13.9537C11.2745 13.9537 11.6226 14.3174 11.6226 14.756V16.1359Z" fill="#3A36DB"/>
</svg>
